<?xml version="1.0" encoding="UTF-8" standalone="no"?>
<!DOCTYPE svg PUBLIC "-//W3C//DTD SVG 1.1//EN" "http://www.w3.org/Graphics/SVG/1.1/DTD/svg11.dtd">
<svg width="100%" height="100%" viewBox="0 0 1001 601" version="1.1" xmlns="http://www.w3.org/2000/svg" xmlns:xlink="http://www.w3.org/1999/xlink" xml:space="preserve" xmlns:serif="http://www.serif.com/" style="fill-rule:evenodd;clip-rule:evenodd;stroke-linejoin:round;stroke-miterlimit:2;">
    <rect id="monochrome" x="0.191" y="0.131" width="1000" height="600" style="fill:none;"/>
    <clipPath id="_clip1">
        <rect id="monochrome1" serif:id="monochrome" x="0.191" y="0.131" width="1000" height="600"/>
    </clipPath>
    <g clip-path="url(#_clip1)">
        <rect x="0.191" y="0.131" width="500" height="300"/>
        <rect x="500.191" y="300.131" width="500" height="300"/>
        <g>
            <g>
                <path d="M157.35,112.825l-0,85.647l185.682,-0l0,-85.647l-7.388,0l-0.162,78.096l-170.582,0l-0,-70.545l145.138,-0l0,-7.551l-152.688,0Z" style="fill:white;fill-rule:nonzero;"/>
                <path d="M200.914,156.566c-0,-6.469 -0.669,-11.089 -2.006,-13.862c-1.317,-2.772 -3.49,-4.159 -6.517,-4.159c-3.009,0 -5.181,1.387 -6.518,4.159c-1.318,2.772 -1.976,7.393 -1.976,13.862c-0,6.449 0.658,11.06 1.976,13.832c1.337,2.772 3.509,4.158 6.518,4.158c3.027,0 5.2,-1.376 6.517,-4.129c1.337,-2.772 2.006,-7.393 2.006,-13.862m6.223,0c-0,7.668 -1.219,13.39 -3.657,17.165c-2.419,3.775 -6.115,5.663 -11.089,5.663c-4.975,0 -8.671,-1.878 -11.09,-5.633c-2.418,-3.756 -3.627,-9.487 -3.627,-17.194c-0,-7.688 1.209,-13.419 3.627,-17.194c2.438,-3.775 6.135,-5.663 11.09,-5.663c4.974,0 8.67,1.888 11.089,5.663c2.438,3.775 3.657,9.506 3.657,17.194" style="fill:white;fill-rule:nonzero;"/>
                <path d="M240.414,136.017l-0,6.046c-1.809,-1.16 -3.628,-2.035 -5.456,-2.625c-1.809,-0.59 -3.638,-0.885 -5.486,-0.885c-2.812,0 -5.033,0.659 -6.665,1.976c-1.632,1.298 -2.448,3.058 -2.448,5.28c-0,1.946 0.531,3.431 1.592,4.453c1.082,1.022 3.087,1.878 6.017,2.566l3.126,0.708c4.129,0.963 7.137,2.477 9.025,4.542c1.887,2.064 2.831,4.876 2.831,8.434c-0,4.188 -1.298,7.383 -3.893,9.586c-2.595,2.202 -6.37,3.303 -11.325,3.303c-2.065,-0 -4.139,-0.226 -6.223,-0.679c-2.084,-0.432 -4.178,-1.091 -6.282,-1.976l-0,-6.341c2.261,1.436 4.394,2.488 6.4,3.156c2.025,0.669 4.06,1.003 6.105,1.003c3.008,-0 5.348,-0.669 7.019,-2.006c1.671,-1.356 2.507,-3.244 2.507,-5.662c-0,-2.202 -0.58,-3.883 -1.74,-5.043c-1.141,-1.16 -3.136,-2.055 -5.987,-2.684l-3.185,-0.738c-4.09,-0.924 -7.059,-2.32 -8.907,-4.188c-1.848,-1.867 -2.772,-4.374 -2.772,-7.52c-0,-3.933 1.317,-7.078 3.952,-9.438c2.654,-2.379 6.173,-3.568 10.558,-3.568c1.691,-0 3.47,0.196 5.338,0.589c1.868,0.374 3.834,0.944 5.899,1.711" style="fill:white;fill-rule:nonzero;"/>
                <path d="M250.934,134.507l5.987,-0l-0,18.05l16.309,-0l0,-18.05l5.987,-0l0,44.032l-5.987,0l0,-20.969l-16.309,0l-0,20.969l-5.987,0l-0,-44.032" style="fill:white;fill-rule:nonzero;"/>
            </g>
            <path d="M283.235,134.507l5.811,-0l4.217,35.745l5.014,-23.654l6.223,0l5.072,23.713l14.285,-68.521l5.81,-0l-16.644,76.749l-5.633,0l-5.987,-26.16l-5.958,26.16l-5.633,0l-6.577,-44.032" style="fill:white;fill-rule:nonzero;"/>
        </g>
        <rect x="500.191" y="0.131" width="500" height="300" style="fill:white;"/>
        <g>
            <g>
                <path d="M657.35,112.825l-0,85.647l185.682,-0l0,-85.647l-7.388,0l-0.162,78.096l-170.582,0l-0,-70.545l145.138,-0l0,-7.551l-152.688,0Z" style="fill-rule:nonzero;"/>
                <path d="M700.914,156.566c-0,-6.469 -0.669,-11.089 -2.006,-13.862c-1.317,-2.772 -3.49,-4.159 -6.517,-4.159c-3.009,0 -5.181,1.387 -6.518,4.159c-1.318,2.772 -1.976,7.393 -1.976,13.862c-0,6.449 0.658,11.06 1.976,13.832c1.337,2.772 3.509,4.158 6.518,4.158c3.027,0 5.2,-1.376 6.517,-4.129c1.337,-2.772 2.006,-7.393 2.006,-13.862m6.223,0c-0,7.668 -1.219,13.39 -3.657,17.165c-2.419,3.775 -6.115,5.663 -11.089,5.663c-4.975,0 -8.671,-1.878 -11.09,-5.633c-2.418,-3.756 -3.627,-9.487 -3.627,-17.194c-0,-7.688 1.209,-13.419 3.627,-17.194c2.438,-3.775 6.135,-5.663 11.09,-5.663c4.974,0 8.67,1.888 11.089,5.663c2.438,3.775 3.657,9.506 3.657,17.194" style="fill-rule:nonzero;"/>
                <path d="M740.414,136.017l-0,6.046c-1.809,-1.16 -3.628,-2.035 -5.456,-2.625c-1.809,-0.59 -3.638,-0.885 -5.486,-0.885c-2.812,0 -5.033,0.659 -6.665,1.976c-1.632,1.298 -2.448,3.058 -2.448,5.28c-0,1.946 0.531,3.431 1.592,4.453c1.082,1.022 3.087,1.878 6.017,2.566l3.126,0.708c4.129,0.963 7.137,2.477 9.025,4.542c1.887,2.064 2.831,4.876 2.831,8.434c-0,4.188 -1.298,7.383 -3.893,9.586c-2.595,2.202 -6.37,3.303 -11.325,3.303c-2.065,-0 -4.139,-0.226 -6.223,-0.679c-2.084,-0.432 -4.178,-1.091 -6.282,-1.976l-0,-6.341c2.261,1.436 4.394,2.488 6.4,3.156c2.025,0.669 4.06,1.003 6.105,1.003c3.008,-0 5.348,-0.669 7.019,-2.006c1.671,-1.356 2.507,-3.244 2.507,-5.662c-0,-2.202 -0.58,-3.883 -1.74,-5.043c-1.141,-1.16 -3.136,-2.055 -5.987,-2.684l-3.185,-0.738c-4.09,-0.924 -7.059,-2.32 -8.907,-4.188c-1.848,-1.867 -2.772,-4.374 -2.772,-7.52c-0,-3.933 1.317,-7.078 3.952,-9.438c2.654,-2.379 6.173,-3.568 10.558,-3.568c1.691,-0 3.47,0.196 5.338,0.589c1.868,0.374 3.834,0.944 5.899,1.711" style="fill-rule:nonzero;"/>
                <path d="M750.934,134.507l5.987,-0l-0,18.05l16.309,-0l0,-18.05l5.987,-0l0,44.032l-5.987,0l0,-20.969l-16.309,0l-0,20.969l-5.987,0l-0,-44.032" style="fill-rule:nonzero;"/>
            </g>
            <path d="M783.235,134.507l5.811,-0l4.217,35.745l5.014,-23.654l6.223,0l5.072,23.713l14.285,-68.521l5.81,-0l-16.644,76.749l-5.633,0l-5.987,-26.16l-5.958,26.16l-5.633,0l-6.577,-44.032" style="fill-rule:nonzero;"/>
        </g>
        <g>
            <g>
                <path d="M157.35,412.825l-0,85.647l185.682,-0l0,-85.647l-7.388,0l-0.162,78.096l-170.582,0l-0,-70.545l145.138,-0l0,-7.551l-152.688,0Z" style="fill:rgb(115,115,115);fill-rule:nonzero;"/>
                <path d="M200.914,456.566c-0,-6.469 -0.669,-11.089 -2.006,-13.862c-1.317,-2.772 -3.49,-4.159 -6.517,-4.159c-3.009,0 -5.181,1.387 -6.518,4.159c-1.318,2.772 -1.976,7.393 -1.976,13.862c-0,6.449 0.658,11.06 1.976,13.832c1.337,2.772 3.509,4.158 6.518,4.158c3.027,0 5.2,-1.376 6.517,-4.129c1.337,-2.772 2.006,-7.393 2.006,-13.862m6.223,0c-0,7.668 -1.219,13.39 -3.657,17.165c-2.419,3.775 -6.115,5.663 -11.089,5.663c-4.975,0 -8.671,-1.878 -11.09,-5.633c-2.418,-3.756 -3.627,-9.487 -3.627,-17.194c-0,-7.688 1.209,-13.419 3.627,-17.194c2.438,-3.775 6.135,-5.663 11.09,-5.663c4.974,0 8.67,1.888 11.089,5.663c2.438,3.775 3.657,9.506 3.657,17.194" style="fill:rgb(115,115,115);fill-rule:nonzero;"/>
                <path d="M240.414,436.017l-0,6.046c-1.809,-1.16 -3.628,-2.035 -5.456,-2.625c-1.809,-0.59 -3.638,-0.885 -5.486,-0.885c-2.812,0 -5.033,0.659 -6.665,1.976c-1.632,1.298 -2.448,3.058 -2.448,5.28c-0,1.946 0.531,3.431 1.592,4.453c1.082,1.022 3.087,1.878 6.017,2.566l3.126,0.708c4.129,0.963 7.137,2.477 9.025,4.542c1.887,2.064 2.831,4.876 2.831,8.434c-0,4.188 -1.298,7.383 -3.893,9.586c-2.595,2.202 -6.37,3.303 -11.325,3.303c-2.065,-0 -4.139,-0.226 -6.223,-0.679c-2.084,-0.432 -4.178,-1.091 -6.282,-1.976l-0,-6.341c2.261,1.436 4.394,2.488 6.4,3.156c2.025,0.669 4.06,1.003 6.105,1.003c3.008,-0 5.348,-0.669 7.019,-2.006c1.671,-1.356 2.507,-3.244 2.507,-5.662c-0,-2.202 -0.58,-3.883 -1.74,-5.043c-1.141,-1.16 -3.136,-2.055 -5.987,-2.684l-3.185,-0.738c-4.09,-0.924 -7.059,-2.32 -8.907,-4.188c-1.848,-1.867 -2.772,-4.374 -2.772,-7.52c-0,-3.933 1.317,-7.078 3.952,-9.438c2.654,-2.379 6.173,-3.568 10.558,-3.568c1.691,-0 3.47,0.196 5.338,0.589c1.868,0.374 3.834,0.944 5.899,1.711" style="fill:rgb(115,115,115);fill-rule:nonzero;"/>
                <path d="M250.934,434.507l5.987,-0l-0,18.05l16.309,-0l0,-18.05l5.987,-0l0,44.032l-5.987,0l0,-20.969l-16.309,0l-0,20.969l-5.987,0l-0,-44.032" style="fill:rgb(115,115,115);fill-rule:nonzero;"/>
            </g>
            <path d="M283.235,434.507l5.811,-0l4.217,35.745l5.014,-23.654l6.223,0l5.072,23.713l14.285,-68.521l5.81,-0l-16.644,76.749l-5.633,0l-5.987,-26.16l-5.958,26.16l-5.633,0l-6.577,-44.032" style="fill:rgb(115,115,115);fill-rule:nonzero;"/>
        </g>
        <g>
            <g>
                <path d="M657.35,412.825l-0,85.647l185.682,-0l0,-85.647l-7.388,0l-0.162,78.096l-170.582,0l-0,-70.545l145.138,-0l0,-7.551l-152.688,0Z" style="fill:rgb(154,154,154);fill-rule:nonzero;"/>
                <path d="M700.914,456.566c-0,-6.469 -0.669,-11.089 -2.006,-13.862c-1.317,-2.772 -3.49,-4.159 -6.517,-4.159c-3.009,0 -5.181,1.387 -6.518,4.159c-1.318,2.772 -1.976,7.393 -1.976,13.862c-0,6.449 0.658,11.06 1.976,13.832c1.337,2.772 3.509,4.158 6.518,4.158c3.027,0 5.2,-1.376 6.517,-4.129c1.337,-2.772 2.006,-7.393 2.006,-13.862m6.223,0c-0,7.668 -1.219,13.39 -3.657,17.165c-2.419,3.775 -6.115,5.663 -11.089,5.663c-4.975,0 -8.671,-1.878 -11.09,-5.633c-2.418,-3.756 -3.627,-9.487 -3.627,-17.194c-0,-7.688 1.209,-13.419 3.627,-17.194c2.438,-3.775 6.135,-5.663 11.09,-5.663c4.974,0 8.67,1.888 11.089,5.663c2.438,3.775 3.657,9.506 3.657,17.194" style="fill:rgb(154,154,154);fill-rule:nonzero;"/>
                <path d="M740.414,436.017l-0,6.046c-1.809,-1.16 -3.628,-2.035 -5.456,-2.625c-1.809,-0.59 -3.638,-0.885 -5.486,-0.885c-2.812,0 -5.033,0.659 -6.665,1.976c-1.632,1.298 -2.448,3.058 -2.448,5.28c-0,1.946 0.531,3.431 1.592,4.453c1.082,1.022 3.087,1.878 6.017,2.566l3.126,0.708c4.129,0.963 7.137,2.477 9.025,4.542c1.887,2.064 2.831,4.876 2.831,8.434c-0,4.188 -1.298,7.383 -3.893,9.586c-2.595,2.202 -6.37,3.303 -11.325,3.303c-2.065,-0 -4.139,-0.226 -6.223,-0.679c-2.084,-0.432 -4.178,-1.091 -6.282,-1.976l-0,-6.341c2.261,1.436 4.394,2.488 6.4,3.156c2.025,0.669 4.06,1.003 6.105,1.003c3.008,-0 5.348,-0.669 7.019,-2.006c1.671,-1.356 2.507,-3.244 2.507,-5.662c-0,-2.202 -0.58,-3.883 -1.74,-5.043c-1.141,-1.16 -3.136,-2.055 -5.987,-2.684l-3.185,-0.738c-4.09,-0.924 -7.059,-2.32 -8.907,-4.188c-1.848,-1.867 -2.772,-4.374 -2.772,-7.52c-0,-3.933 1.317,-7.078 3.952,-9.438c2.654,-2.379 6.173,-3.568 10.558,-3.568c1.691,-0 3.47,0.196 5.338,0.589c1.868,0.374 3.834,0.944 5.899,1.711" style="fill:rgb(154,154,154);fill-rule:nonzero;"/>
                <path d="M750.934,434.507l5.987,-0l-0,18.05l16.309,-0l0,-18.05l5.987,-0l0,44.032l-5.987,0l0,-20.969l-16.309,0l-0,20.969l-5.987,0l-0,-44.032" style="fill:rgb(154,154,154);fill-rule:nonzero;"/>
            </g>
            <path d="M783.235,434.507l5.811,-0l4.217,35.745l5.014,-23.654l6.223,0l5.072,23.713l14.285,-68.521l5.81,-0l-16.644,76.749l-5.633,0l-5.987,-26.16l-5.958,26.16l-5.633,0l-6.577,-44.032" style="fill:rgb(154,154,154);fill-rule:nonzero;"/>
        </g>
    </g>
</svg>
