<?xml version="1.0" encoding="UTF-8" standalone="no"?>
<!DOCTYPE svg PUBLIC "-//W3C//DTD SVG 1.1//EN" "http://www.w3.org/Graphics/SVG/1.1/DTD/svg11.dtd">
<svg width="100%" height="100%" viewBox="0 0 1000 600" version="1.1" xmlns="http://www.w3.org/2000/svg" xmlns:xlink="http://www.w3.org/1999/xlink" xml:space="preserve" xmlns:serif="http://www.serif.com/" style="fill-rule:evenodd;clip-rule:evenodd;stroke-linecap:round;stroke-linejoin:round;stroke-miterlimit:1.5;">
    <rect id="anatomy" x="0" y="0" width="1000" height="600" style="fill:none;"/>
    <g id="anatomy1" serif:id="anatomy">
        <path d="M379.794,148.737l-10.881,0l-0,200.218l10.881,-0" style="fill:none;stroke:rgb(0,138,179);stroke-width:7px;"/>
        <path d="M379.794,376.162l-10.881,-0l-0,64.809l10.881,0" style="fill:none;stroke:rgb(0,136,149);stroke-width:7px;"/>
        <path d="M129.733,271.75l0,-64.072l9.097,0l0,56.149l34.768,0l-0,7.923l-43.865,0Z" style="fill:rgb(0,138,179);fill-rule:nonzero;"/>
        <path d="M201.361,272.257c-4.835,-0 -9.15,-1.061 -12.944,-3.183c-3.793,-2.121 -6.787,-5.053 -8.982,-8.797c-2.194,-3.743 -3.291,-8.005 -3.291,-12.787c-0,-4.844 1.102,-9.117 3.306,-12.818c2.203,-3.701 5.192,-6.611 8.965,-8.73c3.772,-2.12 8.088,-3.18 12.946,-3.18c4.856,0 9.188,1.059 12.995,3.175c3.806,2.116 6.795,5.021 8.965,8.716c2.17,3.695 3.255,7.974 3.255,12.837c-0,4.801 -1.082,9.068 -3.245,12.802c-2.163,3.733 -5.158,6.661 -8.984,8.782c-3.825,2.122 -8.154,3.183 -12.986,3.183Zm-0,-7.692c3.151,0 5.954,-0.701 8.41,-2.103c2.456,-1.402 4.394,-3.395 5.813,-5.977c1.418,-2.583 2.128,-5.581 2.128,-8.992c-0,-3.459 -0.71,-6.465 -2.128,-9.018c-1.419,-2.553 -3.357,-4.528 -5.813,-5.925c-2.456,-1.397 -5.246,-2.096 -8.372,-2.096c-3.125,-0 -5.914,0.699 -8.366,2.096c-2.451,1.397 -4.402,3.372 -5.851,5.925c-1.448,2.553 -2.173,5.559 -2.173,9.018c0,3.411 0.725,6.409 2.173,8.992c1.449,2.582 3.398,4.575 5.846,5.977c2.448,1.402 5.225,2.103 8.333,2.103Z" style="fill:rgb(0,138,179);fill-rule:nonzero;"/>
        <path d="M257.682,290.014c-4.426,-0 -8.732,-0.612 -12.918,-1.835c-4.186,-1.224 -7.614,-3.004 -10.283,-5.341l4.294,-6.77c2.235,1.916 5.005,3.438 8.31,4.564c3.304,1.127 6.734,1.69 10.288,1.69c5.753,0 9.978,-1.334 12.675,-4.001c2.698,-2.667 4.047,-6.736 4.047,-12.207l0,-10.324l0.915,-9.59l-0.529,-9.665l0,-13.266l8.401,-0l0,41.874c0,8.555 -2.137,14.839 -6.412,18.852c-4.275,4.012 -10.537,6.019 -18.788,6.019Zm-1.064,-20.283c-4.702,-0 -8.911,-0.992 -12.625,-2.975c-3.715,-1.983 -6.646,-4.74 -8.794,-8.269c-2.147,-3.53 -3.221,-7.625 -3.221,-12.287c-0,-4.67 1.074,-8.767 3.221,-12.292c2.148,-3.525 5.079,-6.264 8.794,-8.217c3.714,-1.952 7.923,-2.929 12.625,-2.929c4.146,0 7.917,0.848 11.313,2.543c3.396,1.696 6.124,4.28 8.185,7.753c2.06,3.474 3.09,7.854 3.09,13.142c0,5.279 -1.03,9.658 -3.09,13.136c-2.061,3.479 -4.789,6.08 -8.185,7.806c-3.396,1.726 -7.167,2.589 -11.313,2.589Zm0.928,-7.692c3.274,0 6.164,-0.668 8.672,-2.004c2.508,-1.336 4.474,-3.196 5.897,-5.581c1.423,-2.384 2.134,-5.135 2.134,-8.254c0,-3.128 -0.711,-5.879 -2.134,-8.253c-1.423,-2.374 -3.389,-4.217 -5.897,-5.527c-2.508,-1.311 -5.398,-1.966 -8.672,-1.966c-3.212,-0 -6.087,0.655 -8.626,1.966c-2.538,1.31 -4.519,3.153 -5.942,5.527c-1.423,2.374 -2.135,5.125 -2.135,8.253c0,3.119 0.712,5.87 2.135,8.254c1.423,2.385 3.404,4.245 5.942,5.581c2.539,1.336 5.414,2.004 8.626,2.004Z" style="fill:rgb(0,138,179);fill-rule:nonzero;"/>
        <path d="M319.161,272.257c-4.835,-0 -9.149,-1.061 -12.943,-3.183c-3.794,-2.121 -6.788,-5.053 -8.982,-8.797c-2.194,-3.743 -3.292,-8.005 -3.292,-12.787c0,-4.844 1.102,-9.117 3.306,-12.818c2.204,-3.701 5.193,-6.611 8.965,-8.73c3.773,-2.12 8.088,-3.18 12.946,-3.18c4.857,0 9.189,1.059 12.996,3.175c3.806,2.116 6.795,5.021 8.965,8.716c2.17,3.695 3.255,7.974 3.255,12.837c-0,4.801 -1.082,9.068 -3.245,12.802c-2.164,3.733 -5.158,6.661 -8.984,8.782c-3.826,2.122 -8.155,3.183 -12.987,3.183Zm0,-7.692c3.151,0 5.955,-0.701 8.411,-2.103c2.456,-1.402 4.394,-3.395 5.812,-5.977c1.419,-2.583 2.129,-5.581 2.129,-8.992c-0,-3.459 -0.71,-6.465 -2.129,-9.018c-1.418,-2.553 -3.356,-4.528 -5.812,-5.925c-2.456,-1.397 -5.247,-2.096 -8.372,-2.096c-3.125,-0 -5.914,0.699 -8.366,2.096c-2.452,1.397 -4.402,3.372 -5.851,5.925c-1.449,2.553 -2.173,5.559 -2.173,9.018c0,3.411 0.724,6.409 2.173,8.992c1.449,2.582 3.397,4.575 5.845,5.977c2.448,1.402 5.226,2.103 8.333,2.103Z" style="fill:rgb(0,138,179);fill-rule:nonzero;"/>
        <path d="M204.895,440.971c-8.452,0 -15.084,-2.412 -19.894,-7.236c-4.811,-4.825 -7.216,-11.882 -7.216,-21.171l-0,-36.402l9.097,-0l0,36.079c0,7.1 1.573,12.304 4.72,15.613c3.146,3.308 7.603,4.963 13.37,4.963c5.768,-0 10.225,-1.655 13.371,-4.963c3.146,-3.309 4.72,-8.513 4.72,-15.613l-0,-36.079l8.941,-0l0,36.402c0,9.289 -2.405,16.346 -7.215,21.171c-4.81,4.824 -11.442,7.236 -19.894,7.236Z" style="fill:rgb(0,136,149);fill-rule:nonzero;"/>
        <rect x="251.01" y="376.162" width="9.097" height="64.072" style="fill:rgb(0,136,149);fill-rule:nonzero;"/>
        <path d="M277.188,440.233l-0,-64.071l26.961,-0c6.877,-0 12.912,1.349 18.105,4.048c5.193,2.7 9.245,6.447 12.156,11.242c2.91,4.794 4.365,10.376 4.365,16.745c0,6.37 -1.455,11.952 -4.365,16.746c-2.911,4.795 -6.963,8.542 -12.156,11.242c-5.193,2.699 -11.228,4.048 -18.105,4.048l-26.961,0Zm9.097,-7.923l17.372,0c5.293,0 9.873,-1.015 13.74,-3.047c3.867,-2.031 6.868,-4.856 9.002,-8.474c2.135,-3.619 3.202,-7.816 3.202,-12.592c-0,-4.827 -1.067,-9.037 -3.202,-12.629c-2.134,-3.593 -5.135,-6.405 -9.002,-8.436c-3.867,-2.032 -8.447,-3.047 -13.74,-3.047l-17.372,-0l0,48.225Z" style="fill:rgb(0,136,149);fill-rule:nonzero;"/>
        <g>
            <g>
                <path d="M415.21,143.899l0,209.894l455.057,0l-0,-209.894l-18.106,-0l-0.397,191.391l-418.05,0l-0,-172.888l355.694,-0l-0,-18.503l-374.198,-0Z" style="fill:rgb(51,51,51);fill-rule:nonzero;"/>
                <path d="M521.974,251.094c0,-15.853 -1.638,-27.177 -4.915,-33.972c-3.229,-6.794 -8.553,-10.191 -15.974,-10.191c-7.372,-0 -12.696,3.397 -15.973,10.191c-3.229,6.795 -4.843,18.118 -4.843,33.972c0,15.805 1.614,27.105 4.843,33.898c3.277,6.794 8.601,10.191 15.973,10.191c7.421,0 12.745,-3.373 15.974,-10.118c3.277,-6.795 4.915,-18.118 4.915,-33.972m15.251,-0c-0,18.792 -2.988,32.815 -8.963,42.067c-5.926,9.251 -14.985,13.877 -27.176,13.877c-12.191,0 -21.25,-4.602 -27.177,-13.805c-5.927,-9.204 -8.89,-23.249 -8.89,-42.138c-0,-18.841 2.963,-32.887 8.89,-42.138c5.975,-9.252 15.034,-13.878 27.177,-13.878c12.191,0 21.25,4.626 27.176,13.878c5.975,9.251 8.963,23.298 8.963,42.138" style="fill:rgb(51,51,51);fill-rule:nonzero;"/>
                <path d="M618.777,200.734l-0,14.818c-4.433,-2.843 -8.89,-4.988 -13.371,-6.433c-4.434,-1.446 -8.915,-2.168 -13.444,-2.168c-6.891,-0 -12.336,1.614 -16.335,4.842c-4,3.181 -5.999,7.493 -5.999,12.938c-0,4.77 1.301,8.408 3.903,10.914c2.65,2.506 7.565,4.602 14.744,6.288l7.662,1.735c10.119,2.361 17.491,6.072 22.117,11.131c4.626,5.059 6.939,11.95 6.939,20.672c-0,10.263 -3.181,18.093 -9.541,23.49c-6.361,5.397 -15.612,8.095 -27.755,8.095c-5.059,0 -10.143,-0.554 -15.251,-1.662c-5.107,-1.06 -10.239,-2.674 -15.395,-4.843l-0,-15.54c5.541,3.518 10.77,6.096 15.684,7.734c4.963,1.638 9.951,2.457 14.962,2.457c7.372,0 13.106,-1.638 17.202,-4.915c4.096,-3.324 6.144,-7.95 6.144,-13.877c-0,-5.397 -1.422,-9.517 -4.265,-12.36c-2.794,-2.843 -7.685,-5.035 -14.672,-6.577l-7.806,-1.807c-10.022,-2.265 -17.299,-5.686 -21.828,-10.263c-4.529,-4.578 -6.794,-10.721 -6.794,-18.431c0,-9.638 3.229,-17.347 9.685,-23.129c6.505,-5.831 15.13,-8.746 25.876,-8.746c4.144,0 8.505,0.482 13.082,1.446c4.578,0.915 9.396,2.313 14.456,4.192" style="fill:rgb(51,51,51);fill-rule:nonzero;"/>
                <path d="M644.558,197.034l14.673,-0l-0,44.235l39.97,-0l-0,-44.235l14.672,-0l0,107.911l-14.672,-0l-0,-51.39l-39.97,0l-0,51.39l-14.673,-0l0,-107.911" style="fill:rgb(51,51,51);fill-rule:nonzero;"/>
            </g>
            <path d="M723.721,197.034l14.239,-0l10.336,87.6l12.287,-57.967l15.251,-0l12.432,58.112l35.008,-167.926l14.239,0l-40.791,188.092l-13.805,-0l-14.672,-64.111l-14.601,64.111l-13.805,-0l-16.118,-107.911" style="fill:rgb(255,68,68);fill-rule:nonzero;"/>
        </g>
        <path d="M431.138,414.421l0,-40.65l8.97,0l-0,44.715c-0,3.211 0.088,5.501 0.265,6.871c0.177,1.369 0.486,2.422 0.928,3.159c0.942,1.738 2.305,3.049 4.087,3.932c1.782,0.884 3.94,1.326 6.473,1.326c2.563,-0 4.728,-0.442 6.495,-1.326c1.768,-0.883 3.137,-2.194 4.109,-3.932c0.442,-0.737 0.751,-1.782 0.928,-3.137c0.177,-1.355 0.265,-3.623 0.265,-6.805l0,-44.803l8.926,0l-0,40.65c-0,6.745 -0.42,11.539 -1.26,14.382c-0.839,2.843 -2.29,5.192 -4.352,7.047c-1.944,1.738 -4.168,3.034 -6.672,3.889c-2.504,0.854 -5.317,1.281 -8.439,1.281c-3.093,0 -5.891,-0.427 -8.395,-1.281c-2.504,-0.855 -4.743,-2.151 -6.716,-3.889c-2.033,-1.826 -3.476,-4.19 -4.33,-7.091c-0.854,-2.902 -1.282,-7.681 -1.282,-14.338Z" style="fill:rgb(51,51,51);fill-rule:nonzero;"/>
        <path d="M523.838,376.024l-0,9.058c-2.71,-1.738 -5.428,-3.048 -8.152,-3.932c-2.725,-0.884 -5.472,-1.326 -8.241,-1.326c-4.212,0 -7.541,0.98 -9.985,2.939c-2.445,1.958 -3.668,4.602 -3.668,7.931c0,2.916 0.803,5.14 2.408,6.672c1.606,1.531 4.603,2.813 8.992,3.844l4.683,1.06c6.186,1.444 10.693,3.712 13.521,6.805c2.828,3.093 4.242,7.305 4.242,12.636c-0,6.275 -1.944,11.061 -5.833,14.36c-3.888,3.3 -9.544,4.949 -16.967,4.949c-3.093,0 -6.2,-0.331 -9.323,-0.994c-3.122,-0.663 -6.259,-1.657 -9.411,-2.983l0,-9.499c3.388,2.15 6.591,3.726 9.61,4.728c3.02,1.001 6.061,1.502 9.124,1.502c4.507,-0 8.013,-1.009 10.516,-3.027c2.504,-2.018 3.756,-4.838 3.756,-8.461c0,-3.299 -0.862,-5.818 -2.585,-7.556c-1.723,-1.738 -4.72,-3.078 -8.991,-4.021l-4.772,-1.104c-6.127,-1.385 -10.575,-3.476 -13.344,-6.274c-2.769,-2.799 -4.153,-6.554 -4.153,-11.268c-0,-5.891 1.981,-10.611 5.942,-14.161c3.962,-3.549 9.228,-5.324 15.796,-5.324c2.534,0 5.199,0.287 7.998,0.862c2.798,0.574 5.744,1.436 8.837,2.584Z" style="fill:rgb(51,51,51);fill-rule:nonzero;"/>
        <path d="M554.944,406.6c-0,-1.62 0.567,-3.019 1.701,-4.197c1.134,-1.179 2.496,-1.768 4.087,-1.768c1.65,0 3.063,0.589 4.242,1.768c1.178,1.178 1.767,2.577 1.767,4.197c0,1.65 -0.582,3.049 -1.745,4.198c-1.164,1.149 -2.585,1.723 -4.264,1.723c-1.65,-0 -3.027,-0.56 -4.131,-1.679c-1.105,-1.119 -1.657,-2.533 -1.657,-4.242Zm5.876,-26.952c-4.153,-0 -7.253,2.238 -9.301,6.716c-2.047,4.477 -3.07,11.296 -3.07,20.457c-0,9.132 1.023,15.936 3.07,20.413c2.048,4.478 5.148,6.717 9.301,6.717c4.183,-0 7.298,-2.239 9.345,-6.717c2.048,-4.477 3.071,-11.281 3.071,-20.413c0,-9.161 -1.023,-15.98 -3.071,-20.457c-2.047,-4.478 -5.162,-6.716 -9.345,-6.716Zm0,-7.07c7.04,0 12.365,2.887 15.973,8.66c3.608,5.774 5.413,14.301 5.413,25.583c-0,11.253 -1.805,19.765 -5.413,25.539c-3.608,5.773 -8.933,8.66 -15.973,8.66c-7.04,0 -12.357,-2.887 -15.95,-8.66c-3.594,-5.774 -5.391,-14.286 -5.391,-25.539c0,-11.282 1.797,-19.809 5.391,-25.583c3.593,-5.773 8.91,-8.66 15.95,-8.66Z" style="fill:rgb(51,51,51);fill-rule:nonzero;"/>
        <path d="M609.423,406.6c0,-1.62 0.567,-3.019 1.702,-4.197c1.134,-1.179 2.496,-1.768 4.087,-1.768c1.649,0 3.063,0.589 4.241,1.768c1.179,1.178 1.768,2.577 1.768,4.197c-0,1.65 -0.582,3.049 -1.746,4.198c-1.163,1.149 -2.584,1.723 -4.263,1.723c-1.65,-0 -3.027,-0.56 -4.132,-1.679c-1.104,-1.119 -1.657,-2.533 -1.657,-4.242Zm5.877,-26.952c-4.153,-0 -7.254,2.238 -9.301,6.716c-2.047,4.477 -3.071,11.296 -3.071,20.457c0,9.132 1.024,15.936 3.071,20.413c2.047,4.478 5.148,6.717 9.301,6.717c4.183,-0 7.298,-2.239 9.345,-6.717c2.047,-4.477 3.071,-11.281 3.071,-20.413c-0,-9.161 -1.024,-15.98 -3.071,-20.457c-2.047,-4.478 -5.162,-6.716 -9.345,-6.716Zm-0,-7.07c7.04,0 12.364,2.887 15.973,8.66c3.608,5.774 5.412,14.301 5.412,25.583c0,11.253 -1.804,19.765 -5.412,25.539c-3.609,5.773 -8.933,8.66 -15.973,8.66c-7.04,0 -12.357,-2.887 -15.951,-8.66c-3.593,-5.774 -5.39,-14.286 -5.39,-25.539c-0,-11.282 1.797,-19.809 5.39,-25.583c3.594,-5.773 8.911,-8.66 15.951,-8.66Z" style="fill:rgb(51,51,51);fill-rule:nonzero;"/>
        <path d="M663.903,406.6c0,-1.62 0.567,-3.019 1.701,-4.197c1.134,-1.179 2.497,-1.768 4.087,-1.768c1.65,0 3.064,0.589 4.242,1.768c1.178,1.178 1.767,2.577 1.767,4.197c0,1.65 -0.581,3.049 -1.745,4.198c-1.163,1.149 -2.585,1.723 -4.264,1.723c-1.649,-0 -3.026,-0.56 -4.131,-1.679c-1.105,-1.119 -1.657,-2.533 -1.657,-4.242Zm5.877,-26.952c-4.154,-0 -7.254,2.238 -9.301,6.716c-2.047,4.477 -3.071,11.296 -3.071,20.457c-0,9.132 1.024,15.936 3.071,20.413c2.047,4.478 5.147,6.717 9.301,6.717c4.182,-0 7.297,-2.239 9.345,-6.717c2.047,-4.477 3.071,-11.281 3.071,-20.413c-0,-9.161 -1.024,-15.98 -3.071,-20.457c-2.048,-4.478 -5.163,-6.716 -9.345,-6.716Zm-0,-7.07c7.04,0 12.364,2.887 15.972,8.66c3.609,5.774 5.413,14.301 5.413,25.583c0,11.253 -1.804,19.765 -5.413,25.539c-3.608,5.773 -8.932,8.66 -15.972,8.66c-7.04,0 -12.357,-2.887 -15.951,-8.66c-3.594,-5.774 -5.391,-14.286 -5.391,-25.539c0,-11.282 1.797,-19.809 5.391,-25.583c3.594,-5.773 8.911,-8.66 15.951,-8.66Z" style="fill:rgb(51,51,51);fill-rule:nonzero;"/>
        <path d="M718.383,406.6c-0,-1.62 0.567,-3.019 1.701,-4.197c1.134,-1.179 2.496,-1.768 4.087,-1.768c1.649,0 3.063,0.589 4.242,1.768c1.178,1.178 1.767,2.577 1.767,4.197c0,1.65 -0.582,3.049 -1.745,4.198c-1.164,1.149 -2.585,1.723 -4.264,1.723c-1.65,-0 -3.027,-0.56 -4.131,-1.679c-1.105,-1.119 -1.657,-2.533 -1.657,-4.242Zm5.876,-26.952c-4.153,-0 -7.253,2.238 -9.301,6.716c-2.047,4.477 -3.07,11.296 -3.07,20.457c-0,9.132 1.023,15.936 3.07,20.413c2.048,4.478 5.148,6.717 9.301,6.717c4.183,-0 7.298,-2.239 9.345,-6.717c2.048,-4.477 3.071,-11.281 3.071,-20.413c0,-9.161 -1.023,-15.98 -3.071,-20.457c-2.047,-4.478 -5.162,-6.716 -9.345,-6.716Zm0,-7.07c7.04,0 12.365,2.887 15.973,8.66c3.608,5.774 5.413,14.301 5.413,25.583c-0,11.253 -1.805,19.765 -5.413,25.539c-3.608,5.773 -8.933,8.66 -15.973,8.66c-7.04,0 -12.357,-2.887 -15.95,-8.66c-3.594,-5.774 -5.391,-14.286 -5.391,-25.539c0,-11.282 1.797,-19.809 5.391,-25.583c3.593,-5.773 8.91,-8.66 15.95,-8.66Z" style="fill:rgb(51,51,51);fill-rule:nonzero;"/>
        <path d="M772.862,406.6c0,-1.62 0.567,-3.019 1.702,-4.197c1.134,-1.179 2.496,-1.768 4.087,-1.768c1.649,0 3.063,0.589 4.241,1.768c1.179,1.178 1.768,2.577 1.768,4.197c-0,1.65 -0.582,3.049 -1.746,4.198c-1.163,1.149 -2.584,1.723 -4.263,1.723c-1.65,-0 -3.027,-0.56 -4.132,-1.679c-1.104,-1.119 -1.657,-2.533 -1.657,-4.242Zm5.877,-26.952c-4.153,-0 -7.254,2.238 -9.301,6.716c-2.047,4.477 -3.071,11.296 -3.071,20.457c0,9.132 1.024,15.936 3.071,20.413c2.047,4.478 5.148,6.717 9.301,6.717c4.183,-0 7.298,-2.239 9.345,-6.717c2.047,-4.477 3.071,-11.281 3.071,-20.413c-0,-9.161 -1.024,-15.98 -3.071,-20.457c-2.047,-4.478 -5.162,-6.716 -9.345,-6.716Zm-0,-7.07c7.04,0 12.364,2.887 15.973,8.66c3.608,5.774 5.412,14.301 5.412,25.583c0,11.253 -1.804,19.765 -5.412,25.539c-3.609,5.773 -8.933,8.66 -15.973,8.66c-7.04,0 -12.357,-2.887 -15.951,-8.66c-3.593,-5.774 -5.39,-14.286 -5.39,-25.539c-0,-11.282 1.797,-19.809 5.39,-25.583c3.594,-5.773 8.911,-8.66 15.951,-8.66Z" style="fill:rgb(51,51,51);fill-rule:nonzero;"/>
        <path d="M817.931,432.227l13.874,0l-0,-50.414l-14.935,3.358l0,-8.13l14.846,-3.27l8.926,0l-0,58.456l13.697,0l-0,7.512l-36.408,-0l-0,-7.512Z" style="fill:rgb(51,51,51);fill-rule:nonzero;"/>
    </g>
</svg>
