<?xml version="1.0" encoding="UTF-8" standalone="no"?>
<!DOCTYPE svg PUBLIC "-//W3C//DTD SVG 1.1//EN" "http://www.w3.org/Graphics/SVG/1.1/DTD/svg11.dtd">
<svg width="100%" height="100%" viewBox="0 0 1001 600" version="1.1" xmlns="http://www.w3.org/2000/svg" xmlns:xlink="http://www.w3.org/1999/xlink" xml:space="preserve" xmlns:serif="http://www.serif.com/" style="fill-rule:evenodd;clip-rule:evenodd;stroke-linejoin:round;stroke-miterlimit:2;">
    <rect id="color" x="0.497" y="0" width="1000" height="600" style="fill:none;"/>
    <g id="color1" serif:id="color">
        <g>
            <g>
                <path d="M93.397,193.11l0,209.894l455.057,0l0,-209.894l-18.106,-0l-0.397,191.391l-418.05,0l-0,-172.888l355.694,-0l-0,-18.503l-374.198,-0Z" style="fill:rgb(51,51,51);fill-rule:nonzero;"/>
                <path d="M200.161,300.305c0,-15.853 -1.638,-27.176 -4.915,-33.972c-3.228,-6.794 -8.553,-10.191 -15.973,-10.191c-7.373,0 -12.697,3.397 -15.974,10.191c-3.228,6.795 -4.843,18.118 -4.843,33.972c0,15.805 1.615,27.105 4.843,33.898c3.277,6.794 8.601,10.191 15.974,10.191c7.42,0 12.745,-3.373 15.973,-10.118c3.277,-6.794 4.915,-18.118 4.915,-33.972m15.251,-0c-0,18.792 -2.988,32.815 -8.962,42.067c-5.927,9.251 -14.986,13.877 -27.177,13.877c-12.191,0 -21.25,-4.602 -27.177,-13.805c-5.927,-9.204 -8.89,-23.249 -8.89,-42.138c0,-18.841 2.963,-32.887 8.89,-42.138c5.975,-9.252 15.034,-13.878 27.177,-13.878c12.191,0 21.25,4.626 27.177,13.878c5.975,9.251 8.962,23.298 8.962,42.138" style="fill:rgb(51,51,51);fill-rule:nonzero;"/>
                <path d="M296.964,249.945l0,14.818c-4.433,-2.843 -8.89,-4.988 -13.371,-6.433c-4.433,-1.446 -8.915,-2.168 -13.444,-2.168c-6.891,-0 -12.336,1.614 -16.335,4.842c-4,3.181 -5.999,7.493 -5.999,12.938c-0,4.77 1.301,8.408 3.903,10.914c2.65,2.506 7.565,4.602 14.744,6.288l7.662,1.735c10.119,2.361 17.491,6.072 22.117,11.131c4.626,5.059 6.939,11.95 6.939,20.672c-0,10.263 -3.18,18.093 -9.541,23.49c-6.36,5.397 -15.612,8.095 -27.755,8.095c-5.059,0 -10.143,-0.554 -15.251,-1.662c-5.107,-1.06 -10.239,-2.674 -15.395,-4.843l0,-15.54c5.542,3.518 10.77,6.096 15.684,7.734c4.964,1.638 9.951,2.458 14.962,2.458c7.372,-0 13.107,-1.639 17.202,-4.916c4.096,-3.324 6.144,-7.95 6.144,-13.877c-0,-5.397 -1.421,-9.517 -4.264,-12.36c-2.795,-2.842 -7.686,-5.035 -14.673,-6.577l-7.806,-1.807c-10.022,-2.264 -17.298,-5.686 -21.828,-10.263c-4.529,-4.578 -6.794,-10.721 -6.794,-18.431c0,-9.637 3.229,-17.347 9.685,-23.129c6.506,-5.831 15.131,-8.746 25.876,-8.746c4.144,0 8.505,0.482 13.082,1.446c4.578,0.915 9.396,2.313 14.456,4.192" style="fill:rgb(51,51,51);fill-rule:nonzero;"/>
                <path d="M322.745,246.245l14.673,-0l-0,44.235l39.97,-0l-0,-44.235l14.672,-0l0,107.911l-14.672,-0l-0,-51.39l-39.97,0l-0,51.39l-14.673,-0l0,-107.911" style="fill:rgb(51,51,51);fill-rule:nonzero;"/>
            </g>
            <path d="M401.908,246.245l14.239,-0l10.336,87.6l12.288,-57.967l15.25,-0l12.432,58.112l35.008,-167.926l14.239,0l-40.79,188.092l-13.806,-0l-14.672,-64.111l-14.6,64.111l-13.806,-0l-16.118,-107.911" style="fill:rgb(255,68,68);fill-rule:nonzero;"/>
        </g>
        <g>
            <rect x="639.987" y="32.259" width="267.611" height="267.611" style="fill:rgb(51,51,51);"/>
            <path d="M701.788,159.132c-2.247,-0 -4.321,-0.374 -6.221,-1.121c-1.9,-0.747 -3.553,-1.801 -4.959,-3.162c-1.405,-1.361 -2.496,-2.956 -3.273,-4.784c-0.777,-1.828 -1.166,-3.829 -1.166,-6.004c0,-2.175 0.389,-4.176 1.166,-6.004c0.777,-1.828 1.872,-3.423 3.285,-4.784c1.413,-1.361 3.07,-2.415 4.971,-3.162c1.9,-0.747 3.982,-1.121 6.245,-1.121c2.241,0 4.303,0.358 6.184,1.074c1.882,0.717 3.489,1.789 4.822,3.217l-1.945,1.982c-1.258,-1.233 -2.629,-2.121 -4.114,-2.665c-1.485,-0.544 -3.094,-0.816 -4.827,-0.816c-1.819,0 -3.501,0.308 -5.047,0.923c-1.546,0.615 -2.891,1.476 -4.034,2.583c-1.143,1.107 -2.026,2.405 -2.649,3.895c-0.623,1.49 -0.935,3.116 -0.935,4.878c0,1.746 0.312,3.364 0.935,4.854c0.623,1.49 1.506,2.792 2.649,3.907c1.143,1.115 2.484,1.98 4.022,2.595c1.538,0.615 3.217,0.923 5.035,0.923c1.669,-0 3.26,-0.258 4.773,-0.774c1.513,-0.516 2.903,-1.375 4.167,-2.575l1.777,2.359c-1.396,1.253 -3.043,2.196 -4.94,2.83c-1.898,0.635 -3.872,0.952 -5.921,0.952Zm7.878,-4.141l-0,-10.945l2.983,-0l0,11.304l-2.983,-0.359Z" style="fill:white;fill-rule:nonzero;"/>
            <path d="M720.907,158.861l0,-22.221l2.882,-0l0,6.07l-0.3,-1.061c0.624,-1.677 1.668,-2.964 3.132,-3.862c1.464,-0.897 3.286,-1.346 5.465,-1.346l-0,2.93c-0.124,-0.016 -0.244,-0.028 -0.358,-0.035c-0.114,-0.008 -0.231,-0.012 -0.351,-0.012c-2.318,-0 -4.143,0.71 -5.473,2.132c-1.33,1.422 -1.995,3.441 -1.995,6.057l-0,11.348l-3.002,0Z" style="fill:white;fill-rule:nonzero;"/>
            <path d="M748.894,158.861l0,-4.89l-0.119,-0.838l-0,-8.181c-0,-1.9 -0.532,-3.356 -1.596,-4.368c-1.065,-1.013 -2.637,-1.519 -4.716,-1.519c-1.443,0 -2.81,0.238 -4.099,0.714c-1.289,0.476 -2.389,1.109 -3.3,1.9l-1.335,-2.221c1.123,-0.955 2.476,-1.697 4.058,-2.225c1.582,-0.528 3.238,-0.792 4.969,-0.792c2.888,-0 5.114,0.716 6.677,2.149c1.563,1.433 2.344,3.595 2.344,6.487l0,13.784l-2.883,0Zm-7.659,0.199c-1.667,-0 -3.11,-0.27 -4.33,-0.809c-1.22,-0.54 -2.157,-1.298 -2.811,-2.277c-0.654,-0.978 -0.981,-2.097 -0.981,-3.357c0,-1.155 0.275,-2.209 0.824,-3.161c0.549,-0.951 1.452,-1.718 2.707,-2.3c1.255,-0.582 2.944,-0.872 5.064,-0.872l7.652,-0l-0,2.241l-7.55,-0c-2.161,-0 -3.655,0.38 -4.48,1.141c-0.826,0.761 -1.238,1.706 -1.238,2.837c-0,1.284 0.494,2.304 1.482,3.061c0.989,0.757 2.361,1.135 4.117,1.135c1.714,0 3.18,-0.386 4.395,-1.159c1.216,-0.773 2.112,-1.888 2.689,-3.345l0.662,2.06c-0.56,1.476 -1.536,2.646 -2.928,3.51c-1.392,0.863 -3.15,1.295 -5.274,1.295Z" style="fill:white;fill-rule:nonzero;"/>
            <path d="M770.713,159.06c-1.906,-0 -3.637,-0.44 -5.191,-1.321c-1.555,-0.88 -2.79,-2.164 -3.707,-3.852c-0.916,-1.687 -1.374,-3.729 -1.374,-6.127c0,-2.426 0.45,-4.479 1.351,-6.159c0.9,-1.679 2.127,-2.959 3.682,-3.839c1.555,-0.881 3.301,-1.321 5.239,-1.321c2.129,-0 4.029,0.476 5.7,1.428c1.67,0.953 2.987,2.277 3.949,3.972c0.962,1.695 1.443,3.668 1.443,5.919c0,2.238 -0.481,4.204 -1.443,5.9c-0.962,1.695 -2.279,3.019 -3.949,3.971c-1.671,0.953 -3.571,1.429 -5.7,1.429Zm-11.453,8.004l0,-30.424l2.882,-0l0,6.692l-0.303,4.47l0.423,4.47l0,14.792l-3.002,0Zm11.237,-10.653c1.573,0 2.984,-0.358 4.232,-1.074c1.248,-0.716 2.236,-1.729 2.961,-3.04c0.726,-1.311 1.089,-2.823 1.089,-4.537c0,-1.742 -0.363,-3.262 -1.089,-4.559c-0.725,-1.296 -1.713,-2.306 -2.961,-3.028c-1.248,-0.722 -2.659,-1.083 -4.232,-1.083c-1.573,-0 -2.984,0.361 -4.232,1.083c-1.249,0.722 -2.236,1.732 -2.962,3.028c-0.726,1.297 -1.089,2.817 -1.089,4.559c0,1.714 0.363,3.226 1.089,4.537c0.726,1.311 1.713,2.324 2.962,3.04c1.248,0.716 2.659,1.074 4.232,1.074Z" style="fill:white;fill-rule:nonzero;"/>
            <path d="M798.95,136.441c1.82,-0 3.41,0.349 4.771,1.048c1.36,0.698 2.428,1.752 3.203,3.161c0.775,1.409 1.162,3.181 1.162,5.314l0,12.897l-3.002,0l-0,-12.586c-0,-2.355 -0.583,-4.133 -1.749,-5.335c-1.166,-1.202 -2.805,-1.803 -4.918,-1.803c-1.582,0 -2.959,0.32 -4.133,0.96c-1.174,0.639 -2.075,1.557 -2.704,2.753c-0.63,1.195 -0.944,2.643 -0.944,4.344l-0,11.667l-3.002,0l0,-31.376l3.002,-0l-0,15.251l-0.588,-1.109c0.713,-1.629 1.838,-2.901 3.377,-3.815c1.539,-0.914 3.38,-1.371 5.525,-1.371Z" style="fill:white;fill-rule:nonzero;"/>
            <path d="M815.875,158.861l0,-22.2l3.003,-0l-0,22.2l-3.003,0Zm1.523,-27.105c-0.621,-0 -1.142,-0.212 -1.565,-0.634c-0.423,-0.423 -0.634,-0.931 -0.634,-1.523c-0,-0.592 0.211,-1.092 0.634,-1.501c0.423,-0.409 0.944,-0.613 1.565,-0.613c0.62,-0 1.141,0.197 1.564,0.592c0.423,0.395 0.634,0.888 0.634,1.48c0,0.62 -0.204,1.142 -0.613,1.565c-0.409,0.422 -0.937,0.634 -1.585,0.634Z" style="fill:white;fill-rule:nonzero;"/>
            <path d="M833.466,159.06c-2.087,-0 -3.693,-0.565 -4.819,-1.696c-1.126,-1.13 -1.689,-2.723 -1.689,-4.776l0,-20.822l3.002,-0l0,20.658c0,1.311 0.329,2.319 0.986,3.024c0.658,0.706 1.608,1.059 2.85,1.059c1.322,-0 2.422,-0.379 3.301,-1.137l1.047,2.149c-0.571,0.52 -1.276,0.907 -2.116,1.16c-0.839,0.254 -1.693,0.381 -2.562,0.381Zm-10.473,-19.915l0,-2.505l13.721,-0l-0,2.505l-13.721,-0Z" style="fill:white;fill-rule:nonzero;"/>
            <path d="M851.446,159.06c-2.306,-0 -4.336,-0.484 -6.091,-1.453c-1.755,-0.968 -3.124,-2.307 -4.109,-4.016c-0.984,-1.709 -1.477,-3.659 -1.477,-5.85c0,-2.202 0.469,-4.152 1.407,-5.849c0.938,-1.697 2.231,-3.03 3.879,-3.998c1.648,-0.969 3.511,-1.453 5.588,-1.453c2.076,-0 3.927,0.474 5.551,1.422c1.624,0.948 2.9,2.272 3.828,3.971c0.928,1.699 1.392,3.669 1.392,5.912c0,0.124 -0.004,0.267 -0.012,0.432c-0.008,0.164 -0.02,0.322 -0.036,0.474l-19.311,-0l0,-2.242l17.72,0l-1.201,0.898c0.016,-1.597 -0.321,-3.021 -1.011,-4.271c-0.689,-1.251 -1.628,-2.234 -2.816,-2.948c-1.187,-0.714 -2.555,-1.071 -4.104,-1.071c-1.537,-0 -2.906,0.357 -4.108,1.071c-1.201,0.714 -2.14,1.701 -2.816,2.959c-0.676,1.259 -1.013,2.703 -1.013,4.332l-0,0.505c-0,1.666 0.373,3.142 1.119,4.429c0.746,1.287 1.784,2.292 3.115,3.014c1.33,0.722 2.856,1.083 4.578,1.083c1.37,0 2.639,-0.242 3.806,-0.726c1.167,-0.484 2.163,-1.218 2.989,-2.202l1.695,1.959c-0.991,1.184 -2.223,2.083 -3.696,2.697c-1.474,0.614 -3.096,0.921 -4.866,0.921Z" style="fill:white;fill-rule:nonzero;"/>
            <path d="M707.471,204.48l3.637,-29.6l1.218,-0l-3.636,29.6l-1.219,0Zm-16.146,-8.666l-0,-1.189l24.794,0l-0,1.189l-24.794,0Zm5.152,8.666l3.643,-29.6l1.218,-0l-3.643,29.6l-1.218,0Zm-3.829,-19.746l-0,-1.188l24.788,-0l0.006,1.188l-24.794,0Z" style="fill:white;fill-rule:nonzero;"/>
            <path d="M729.721,204.643c-2.207,0 -4.23,-0.382 -6.071,-1.147c-1.84,-0.765 -3.242,-1.745 -4.206,-2.941l0.788,-1.026c0.85,1.071 2.117,1.973 3.8,2.705c1.683,0.733 3.578,1.099 5.683,1.099c2.809,0 4.944,-0.642 6.403,-1.926c1.46,-1.284 2.19,-2.997 2.19,-5.138c-0,-2.137 -0.737,-3.846 -2.21,-5.128c-1.474,-1.282 -3.77,-1.923 -6.89,-1.923l-1.669,0l0,-1.037l9.633,-12.537l0.176,0.528l-16.9,0l-0,-1.292l18.174,-0l-0,1.019l-9.634,12.537l-0.444,-0.473l0.762,-0c3.512,-0 6.128,0.768 7.848,2.305c1.72,1.536 2.58,3.535 2.58,5.995c-0,1.639 -0.38,3.09 -1.14,4.353c-0.759,1.263 -1.882,2.25 -3.368,2.961c-1.487,0.711 -3.321,1.066 -5.505,1.066Z" style="fill:white;fill-rule:nonzero;"/>
            <path d="M752.682,204.643c-2.207,0 -4.23,-0.382 -6.071,-1.147c-1.84,-0.765 -3.242,-1.745 -4.206,-2.941l0.788,-1.026c0.85,1.071 2.117,1.973 3.8,2.705c1.683,0.733 3.578,1.099 5.683,1.099c2.81,0 4.944,-0.642 6.404,-1.926c1.459,-1.284 2.189,-2.997 2.189,-5.138c-0,-2.137 -0.737,-3.846 -2.21,-5.128c-1.474,-1.282 -3.77,-1.923 -6.89,-1.923l-1.668,0l-0,-1.037l9.632,-12.537l0.177,0.528l-16.901,0l0,-1.292l18.174,-0l-0,1.019l-9.633,12.537l-0.445,-0.473l0.762,-0c3.512,-0 6.128,0.768 7.848,2.305c1.72,1.536 2.58,3.535 2.58,5.995c-0,1.639 -0.38,3.09 -1.139,4.353c-0.76,1.263 -1.883,2.25 -3.369,2.961c-1.486,0.711 -3.321,1.066 -5.505,1.066Z" style="fill:white;fill-rule:nonzero;"/>
            <path d="M775.644,204.643c-2.207,0 -4.231,-0.382 -6.071,-1.147c-1.841,-0.765 -3.243,-1.745 -4.206,-2.941l0.787,-1.026c0.85,1.071 2.117,1.973 3.8,2.705c1.684,0.733 3.578,1.099 5.684,1.099c2.809,0 4.943,-0.642 6.403,-1.926c1.459,-1.284 2.189,-2.997 2.189,-5.138c0,-2.137 -0.737,-3.846 -2.21,-5.128c-1.473,-1.282 -3.77,-1.923 -6.89,-1.923l-1.668,0l-0,-1.037l9.632,-12.537l0.177,0.528l-16.901,0l0,-1.292l18.174,-0l0,1.019l-9.633,12.537l-0.445,-0.473l0.763,-0c3.512,-0 6.127,0.768 7.847,2.305c1.72,1.536 2.58,3.535 2.58,5.995c0,1.639 -0.38,3.09 -1.139,4.353c-0.759,1.263 -1.882,2.25 -3.369,2.961c-1.486,0.711 -3.321,1.066 -5.504,1.066Z" style="fill:white;fill-rule:nonzero;"/>
            <path d="M798.605,204.643c-2.207,0 -4.231,-0.382 -6.071,-1.147c-1.841,-0.765 -3.243,-1.745 -4.206,-2.941l0.788,-1.026c0.85,1.071 2.116,1.973 3.8,2.705c1.683,0.733 3.577,1.099 5.683,1.099c2.809,0 4.944,-0.642 6.403,-1.926c1.46,-1.284 2.189,-2.997 2.189,-5.138c0,-2.137 -0.736,-3.846 -2.21,-5.128c-1.473,-1.282 -3.77,-1.923 -6.89,-1.923l-1.668,0l0,-1.037l9.633,-12.537l0.176,0.528l-16.9,0l-0,-1.292l18.173,-0l0,1.019l-9.633,12.537l-0.445,-0.473l0.763,-0c3.512,-0 6.128,0.768 7.847,2.305c1.72,1.536 2.58,3.535 2.58,5.995c0,1.639 -0.379,3.09 -1.139,4.353c-0.759,1.263 -1.882,2.25 -3.368,2.961c-1.487,0.711 -3.322,1.066 -5.505,1.066Z" style="fill:white;fill-rule:nonzero;"/>
            <path d="M821.566,204.643c-2.207,0 -4.23,-0.382 -6.071,-1.147c-1.841,-0.765 -3.242,-1.745 -4.206,-2.941l0.788,-1.026c0.85,1.071 2.117,1.973 3.8,2.705c1.683,0.733 3.578,1.099 5.683,1.099c2.809,0 4.944,-0.642 6.403,-1.926c1.46,-1.284 2.19,-2.997 2.19,-5.138c-0,-2.137 -0.737,-3.846 -2.21,-5.128c-1.474,-1.282 -3.771,-1.923 -6.89,-1.923l-1.669,0l0,-1.037l9.633,-12.537l0.176,0.528l-16.9,0l-0,-1.292l18.173,-0l0,1.019l-9.633,12.537l-0.444,-0.473l0.762,-0c3.512,-0 6.128,0.768 7.848,2.305c1.72,1.536 2.579,3.535 2.579,5.995c0,1.639 -0.379,3.09 -1.139,4.353c-0.759,1.263 -1.882,2.25 -3.368,2.961c-1.487,0.711 -3.322,1.066 -5.505,1.066Z" style="fill:white;fill-rule:nonzero;"/>
            <path d="M844.527,204.643c-2.207,0 -4.23,-0.382 -6.071,-1.147c-1.84,-0.765 -3.242,-1.745 -4.206,-2.941l0.788,-1.026c0.85,1.071 2.117,1.973 3.8,2.705c1.683,0.733 3.578,1.099 5.683,1.099c2.81,0 4.944,-0.642 6.404,-1.926c1.459,-1.284 2.189,-2.997 2.189,-5.138c-0,-2.137 -0.737,-3.846 -2.21,-5.128c-1.474,-1.282 -3.77,-1.923 -6.89,-1.923l-1.668,0l-0,-1.037l9.632,-12.537l0.177,0.528l-16.901,0l0,-1.292l18.174,-0l-0,1.019l-9.634,12.537l-0.444,-0.473l0.762,-0c3.512,-0 6.128,0.768 7.848,2.305c1.72,1.536 2.58,3.535 2.58,5.995c-0,1.639 -0.38,3.09 -1.139,4.353c-0.76,1.263 -1.883,2.25 -3.369,2.961c-1.486,0.711 -3.321,1.066 -5.505,1.066Z" style="fill:white;fill-rule:nonzero;"/>
        </g>
        <g>
            <rect x="639.987" y="300.131" width="267.611" height="267.611" style="fill:rgb(255,68,68);"/>
            <path d="M739.147,427.085c-2.219,0 -4.272,-0.373 -6.158,-1.12c-1.886,-0.747 -3.525,-1.801 -4.916,-3.163c-1.392,-1.361 -2.476,-2.956 -3.253,-4.784c-0.777,-1.828 -1.165,-3.829 -1.165,-6.004c-0,-2.174 0.388,-4.175 1.165,-6.003c0.777,-1.828 1.865,-3.423 3.264,-4.784c1.4,-1.362 3.042,-2.416 4.929,-3.163c1.886,-0.747 3.939,-1.12 6.157,-1.12c2.169,-0 4.191,0.362 6.067,1.086c1.876,0.724 3.472,1.808 4.788,3.252l-1.993,1.982c-1.209,-1.233 -2.549,-2.129 -4.021,-2.689c-1.471,-0.559 -3.044,-0.839 -4.72,-0.839c-1.791,-0 -3.448,0.307 -4.972,0.922c-1.524,0.616 -2.851,1.477 -3.98,2.583c-1.129,1.107 -2.005,2.406 -2.628,3.896c-0.623,1.49 -0.934,3.116 -0.934,4.877c-0,1.762 0.311,3.388 0.934,4.878c0.623,1.49 1.499,2.789 2.628,3.895c1.129,1.107 2.456,1.968 3.98,2.584c1.524,0.615 3.181,0.922 4.972,0.922c1.676,0 3.249,-0.283 4.72,-0.848c1.472,-0.566 2.812,-1.474 4.021,-2.722l1.993,1.981c-1.316,1.445 -2.912,2.536 -4.788,3.274c-1.876,0.738 -3.906,1.107 -6.09,1.107Z" style="fill:white;fill-rule:nonzero;"/>
            <path d="M763.736,427.013c-2.167,0 -4.1,-0.484 -5.8,-1.452c-1.7,-0.969 -3.044,-2.309 -4.03,-4.021c-0.986,-1.713 -1.479,-3.662 -1.479,-5.849c-0,-2.216 0.495,-4.169 1.484,-5.859c0.989,-1.69 2.331,-3.018 4.024,-3.986c1.694,-0.968 3.627,-1.452 5.801,-1.452c2.173,0 4.114,0.484 5.823,1.45c1.708,0.967 3.05,2.294 4.024,3.982c0.974,1.688 1.462,3.643 1.462,5.865c-0,2.193 -0.486,4.144 -1.459,5.853c-0.972,1.71 -2.315,3.048 -4.03,4.017c-1.714,0.968 -3.654,1.452 -5.82,1.452Zm-0,-2.648c1.589,-0 3.007,-0.362 4.256,-1.084c1.248,-0.722 2.232,-1.738 2.95,-3.049c0.718,-1.311 1.076,-2.824 1.076,-4.54c0,-1.74 -0.358,-3.259 -1.076,-4.556c-0.718,-1.296 -1.702,-2.303 -2.95,-3.019c-1.249,-0.716 -2.663,-1.074 -4.244,-1.074c-1.581,0 -2.993,0.358 -4.235,1.074c-1.243,0.716 -2.23,1.723 -2.962,3.019c-0.732,1.297 -1.098,2.816 -1.098,4.556c0,1.716 0.366,3.229 1.098,4.54c0.732,1.311 1.719,2.327 2.96,3.049c1.241,0.722 2.65,1.084 4.225,1.084Z" style="fill:white;fill-rule:nonzero;"/>
            <path d="M780.466,426.815l-0,-22.222l2.882,0l-0,6.071l-0.3,-1.061c0.624,-1.678 1.667,-2.965 3.132,-3.862c1.464,-0.898 3.285,-1.347 5.464,-1.347l0,2.931c-0.124,-0.016 -0.243,-0.028 -0.357,-0.036c-0.114,-0.008 -0.231,-0.012 -0.352,-0.012c-2.318,0 -4.142,0.711 -5.472,2.133c-1.33,1.421 -1.996,3.44 -1.996,6.057l0,11.348l-3.001,-0Z" style="fill:white;fill-rule:nonzero;"/>
            <path d="M808.453,426.815l0,-4.89l-0.12,-0.839l0,-8.181c0,-1.9 -0.532,-3.356 -1.596,-4.368c-1.064,-1.012 -2.636,-1.518 -4.715,-1.518c-1.444,-0 -2.81,0.238 -4.099,0.714c-1.29,0.476 -2.39,1.109 -3.3,1.9l-1.335,-2.222c1.123,-0.955 2.475,-1.696 4.057,-2.224c1.582,-0.529 3.239,-0.793 4.969,-0.793c2.889,0 5.115,0.717 6.678,2.149c1.562,1.433 2.344,3.595 2.344,6.488l-0,13.784l-2.883,-0Zm-7.66,0.198c-1.666,0 -3.11,-0.269 -4.329,-0.809c-1.22,-0.539 -2.157,-1.298 -2.811,-2.276c-0.654,-0.978 -0.981,-2.098 -0.981,-3.358c-0,-1.155 0.274,-2.208 0.824,-3.16c0.549,-0.952 1.451,-1.719 2.707,-2.3c1.255,-0.582 2.943,-0.873 5.064,-0.873l7.651,0l0,2.241l-7.549,0c-2.162,0 -3.655,0.381 -4.48,1.141c-0.826,0.761 -1.239,1.707 -1.239,2.837c0,1.284 0.495,2.304 1.483,3.061c0.988,0.757 2.361,1.136 4.116,1.136c1.715,-0 3.18,-0.387 4.396,-1.16c1.215,-0.773 2.111,-1.888 2.688,-3.344l0.663,2.059c-0.56,1.476 -1.536,2.646 -2.928,3.51c-1.393,0.864 -3.151,1.295 -5.275,1.295Z" style="fill:white;fill-rule:nonzero;"/>
            <rect x="818.819" y="395.438" width="3.002" height="31.376" style="fill:white;fill-rule:nonzero;"/>
            <path d="M696.582,472.433l3.636,-29.6l1.219,0l-3.637,29.6l-1.218,0Zm-16.147,-8.665l0,-1.189l24.794,-0l0,1.189l-24.794,-0Zm5.152,8.665l3.643,-29.6l1.218,0l-3.642,29.6l-1.219,0Zm-3.829,-19.745l-0,-1.189l24.789,0l0.006,1.189l-24.795,-0Z" style="fill:white;fill-rule:nonzero;"/>
            <path d="M714.456,457.668l16.313,-0l0,1.291l-16.313,0l-0,-1.291Zm0.241,14.765l-1.42,0l0,-29.6l19.383,0l-0,1.293l-17.963,-0l0,28.307Z" style="fill:white;fill-rule:nonzero;"/>
            <path d="M741.053,457.668l16.314,-0l0,1.291l-16.314,0l0,-1.291Zm0.242,14.765l-1.42,0l0,-29.6l19.382,0l0,1.293l-17.962,-0l0,28.307Z" style="fill:white;fill-rule:nonzero;"/>
            <path d="M760.609,463.901l0,-1.038l16.404,-20.03l1.62,0l-16.374,20.03l-0.83,-0.254l24.023,-0l0,1.292l-24.843,-0Zm17.016,8.532l-0,-8.532l0.018,-1.292l0,-7.513l1.383,0l0,17.337l-1.401,0Z" style="fill:white;fill-rule:nonzero;"/>
            <path d="M787.841,463.901l0,-1.038l16.404,-20.03l1.62,0l-16.374,20.03l-0.83,-0.254l24.023,-0l0,1.292l-24.843,-0Zm17.016,8.532l-0,-8.532l0.018,-1.292l0,-7.513l1.383,0l0,17.337l-1.401,0Z" style="fill:white;fill-rule:nonzero;"/>
            <path d="M815.073,463.901l0,-1.038l16.404,-20.03l1.62,0l-16.374,20.03l-0.83,-0.254l24.023,-0l0,1.292l-24.843,-0Zm17.016,8.532l-0,-8.532l0.018,-1.292l0,-7.513l1.383,0l0,17.337l-1.401,0Z" style="fill:white;fill-rule:nonzero;"/>
            <path d="M842.306,463.901l-0,-1.038l16.403,-20.03l1.62,0l-16.374,20.03l-0.83,-0.254l24.023,-0l0,1.292l-24.842,-0Zm17.015,8.532l-0,-8.532l0.018,-1.292l0,-7.513l1.383,0l0,17.337l-1.401,0Z" style="fill:white;fill-rule:nonzero;"/>
        </g>
    </g>
</svg>
