<?xml version="1.0" encoding="UTF-8" standalone="no"?>
<!DOCTYPE svg PUBLIC "-//W3C//DTD SVG 1.1//EN" "http://www.w3.org/Graphics/SVG/1.1/DTD/svg11.dtd">
<svg width="100%" height="100%" viewBox="0 0 1000 600" version="1.1" xmlns="http://www.w3.org/2000/svg" xmlns:xlink="http://www.w3.org/1999/xlink" xml:space="preserve" xmlns:serif="http://www.serif.com/" style="fill-rule:evenodd;clip-rule:evenodd;stroke-linecap:round;stroke-linejoin:round;stroke-miterlimit:1.5;">
    <rect id="variants" x="0" y="0" width="1000" height="600" style="fill:none;"/>
    <g id="variants1" serif:id="variants">
        <g id="Stacked">
            <g>
                <g>
                    <path d="M375.357,98.337l0,88.903l192.745,0l-0,-88.903l-7.669,0l-0.169,81.066l-177.069,0l-0,-73.229l150.658,0l-0,-7.837l-158.496,0Z" style="fill:rgb(51,51,51);fill-rule:nonzero;"/>
                    <path d="M420.578,143.741c0,-6.715 -0.694,-11.511 -2.081,-14.389c-1.368,-2.878 -3.623,-4.317 -6.766,-4.317c-3.123,0 -5.378,1.439 -6.766,4.317c-1.367,2.878 -2.051,7.674 -2.051,14.389c-0,6.694 0.684,11.48 2.051,14.358c1.388,2.878 3.643,4.317 6.766,4.317c3.143,-0 5.398,-1.429 6.766,-4.286c1.387,-2.878 2.081,-7.674 2.081,-14.39m6.46,0c-0,7.96 -1.265,13.9 -3.796,17.818c-2.511,3.919 -6.348,5.878 -11.511,5.878c-5.164,0 -9.001,-1.949 -11.511,-5.847c-2.51,-3.898 -3.766,-9.848 -3.766,-17.848c0,-7.98 1.256,-13.93 3.766,-17.848c2.531,-3.919 6.368,-5.878 11.511,-5.878c5.163,-0 9,1.959 11.511,5.878c2.531,3.918 3.796,9.868 3.796,17.848" style="fill:rgb(51,51,51);fill-rule:nonzero;"/>
                    <path d="M461.58,122.411l0,6.276c-1.877,-1.205 -3.765,-2.113 -5.663,-2.725c-1.878,-0.612 -3.776,-0.918 -5.695,-0.918c-2.918,-0 -5.224,0.683 -6.918,2.051c-1.695,1.347 -2.541,3.173 -2.541,5.48c-0,2.02 0.551,3.561 1.653,4.622c1.122,1.062 3.204,1.95 6.245,2.664l3.245,0.735c4.286,1 7.409,2.571 9.368,4.714c1.959,2.143 2.939,5.062 2.939,8.756c0,4.347 -1.347,7.664 -4.041,9.95c-2.694,2.285 -6.613,3.428 -11.756,3.428c-2.143,0 -4.296,-0.234 -6.46,-0.704c-2.163,-0.449 -4.337,-1.132 -6.52,-2.051l-0,-6.582c2.347,1.49 4.561,2.582 6.643,3.276c2.102,0.694 4.214,1.041 6.337,1.041c3.123,-0 5.551,-0.694 7.286,-2.082c1.735,-1.408 2.602,-3.368 2.602,-5.878c0,-2.286 -0.602,-4.031 -1.806,-5.235c-1.184,-1.204 -3.255,-2.133 -6.214,-2.786l-3.307,-0.765c-4.245,-0.96 -7.327,-2.409 -9.245,-4.348c-1.919,-1.939 -2.878,-4.541 -2.878,-7.806c0,-4.082 1.368,-7.348 4.102,-9.797c2.756,-2.469 6.409,-3.704 10.96,-3.704c1.755,-0 3.602,0.204 5.541,0.612c1.939,0.388 3.98,0.98 6.123,1.776" style="fill:rgb(51,51,51);fill-rule:nonzero;"/>
                    <path d="M472.5,120.843l6.215,0l-0,18.736l16.93,0l-0,-18.736l6.214,0l0,45.707l-6.214,0l-0,-21.767l-16.93,0l-0,21.767l-6.215,0l0,-45.707" style="fill:rgb(51,51,51);fill-rule:nonzero;"/>
                </g>
                <path d="M506.031,120.843l6.031,0l4.377,37.104l5.205,-24.552l6.459,-0l5.266,24.614l14.828,-71.127l6.031,-0l-17.277,79.668l-5.847,0l-6.215,-27.155l-6.184,27.155l-5.848,0l-6.827,-45.707" style="fill:rgb(255,68,68);fill-rule:nonzero;"/>
            </g>
            <path d="M382.104,212.92l-0,-17.218l3.799,0l0,18.94c0,1.36 0.037,2.33 0.112,2.91c0.075,0.58 0.206,1.026 0.393,1.338c0.4,0.736 0.977,1.291 1.731,1.666c0.755,0.374 1.669,0.561 2.742,0.561c1.086,-0 2.003,-0.187 2.751,-0.561c0.749,-0.375 1.329,-0.93 1.741,-1.666c0.187,-0.312 0.318,-0.755 0.393,-1.329c0.075,-0.574 0.112,-1.534 0.112,-2.882l0,-18.977l3.78,0l0,17.218c0,2.857 -0.177,4.888 -0.533,6.092c-0.355,1.204 -0.97,2.199 -1.843,2.985c-0.824,0.736 -1.766,1.285 -2.826,1.646c-1.061,0.362 -2.252,0.543 -3.575,0.543c-1.31,0 -2.495,-0.181 -3.556,-0.543c-1.06,-0.361 -2.008,-0.91 -2.844,-1.646c-0.861,-0.774 -1.473,-1.775 -1.834,-3.004c-0.362,-1.229 -0.543,-3.253 -0.543,-6.073Z" style="fill:rgb(51,51,51);fill-rule:nonzero;"/>
            <path d="M421.368,196.657l-0,3.836c-1.148,-0.736 -2.299,-1.291 -3.453,-1.665c-1.154,-0.375 -2.318,-0.562 -3.49,-0.562c-1.785,0 -3.194,0.415 -4.23,1.245c-1.036,0.829 -1.553,1.949 -1.553,3.359c-0,1.235 0.34,2.177 1.02,2.826c0.68,0.649 1.949,1.191 3.808,1.628l1.984,0.449c2.62,0.612 4.529,1.572 5.727,2.882c1.197,1.31 1.796,3.095 1.796,5.353c0,2.657 -0.823,4.685 -2.47,6.082c-1.647,1.398 -4.043,2.096 -7.187,2.096c-1.31,0 -2.626,-0.14 -3.948,-0.421c-1.323,-0.281 -2.652,-0.702 -3.987,-1.263l0,-4.024c1.435,0.911 2.792,1.578 4.071,2.003c1.279,0.424 2.567,0.636 3.864,0.636c1.909,-0 3.394,-0.427 4.454,-1.282c1.061,-0.855 1.591,-2.049 1.591,-3.584c0,-1.397 -0.365,-2.464 -1.095,-3.2c-0.729,-0.736 -1.999,-1.304 -3.808,-1.703l-2.021,-0.468c-2.595,-0.586 -4.479,-1.472 -5.652,-2.658c-1.173,-1.185 -1.759,-2.776 -1.759,-4.772c-0,-2.495 0.839,-4.495 2.517,-5.998c1.678,-1.503 3.908,-2.255 6.69,-2.255c1.073,-0 2.203,0.121 3.388,0.365c1.185,0.243 2.433,0.608 3.743,1.095Z" style="fill:rgb(51,51,51);fill-rule:nonzero;"/>
            <path d="M434.543,209.607c0,-0.686 0.24,-1.279 0.721,-1.778c0.48,-0.499 1.057,-0.748 1.731,-0.748c0.698,-0 1.297,0.249 1.796,0.748c0.499,0.499 0.749,1.092 0.749,1.778c-0,0.699 -0.247,1.292 -0.739,1.778c-0.493,0.487 -1.095,0.73 -1.806,0.73c-0.699,0 -1.282,-0.237 -1.75,-0.711c-0.468,-0.474 -0.702,-1.073 -0.702,-1.797Zm2.489,-11.416c-1.759,0 -3.072,0.948 -3.939,2.845c-0.867,1.896 -1.301,4.785 -1.301,8.665c-0,3.868 0.434,6.75 1.301,8.646c0.867,1.897 2.18,2.845 3.939,2.845c1.772,-0 3.091,-0.948 3.958,-2.845c0.867,-1.896 1.301,-4.778 1.301,-8.646c-0,-3.88 -0.434,-6.769 -1.301,-8.665c-0.867,-1.897 -2.186,-2.845 -3.958,-2.845Zm0,-2.994c2.982,-0 5.237,1.223 6.766,3.668c1.528,2.445 2.292,6.057 2.292,10.836c0,4.766 -0.764,8.372 -2.292,10.817c-1.529,2.445 -3.784,3.668 -6.766,3.668c-2.982,0 -5.234,-1.223 -6.756,-3.668c-1.522,-2.445 -2.283,-6.051 -2.283,-10.817c-0,-4.779 0.761,-8.391 2.283,-10.836c1.522,-2.445 3.774,-3.668 6.756,-3.668Z" style="fill:rgb(51,51,51);fill-rule:nonzero;"/>
            <path d="M457.618,209.607c0,-0.686 0.241,-1.279 0.721,-1.778c0.48,-0.499 1.057,-0.748 1.731,-0.748c0.699,-0 1.298,0.249 1.797,0.748c0.499,0.499 0.748,1.092 0.748,1.778c0,0.699 -0.246,1.292 -0.739,1.778c-0.493,0.487 -1.095,0.73 -1.806,0.73c-0.699,0 -1.282,-0.237 -1.75,-0.711c-0.468,-0.474 -0.702,-1.073 -0.702,-1.797Zm2.49,-11.416c-1.76,0 -3.073,0.948 -3.94,2.845c-0.867,1.896 -1.301,4.785 -1.301,8.665c0,3.868 0.434,6.75 1.301,8.646c0.867,1.897 2.18,2.845 3.94,2.845c1.771,-0 3.091,-0.948 3.958,-2.845c0.867,-1.896 1.3,-4.778 1.3,-8.646c0,-3.88 -0.433,-6.769 -1.3,-8.665c-0.867,-1.897 -2.187,-2.845 -3.958,-2.845Zm-0,-2.994c2.981,-0 5.237,1.223 6.765,3.668c1.528,2.445 2.293,6.057 2.293,10.836c-0,4.766 -0.765,8.372 -2.293,10.817c-1.528,2.445 -3.784,3.668 -6.765,3.668c-2.982,0 -5.234,-1.223 -6.757,-3.668c-1.522,-2.445 -2.283,-6.051 -2.283,-10.817c0,-4.779 0.761,-8.391 2.283,-10.836c1.523,-2.445 3.775,-3.668 6.757,-3.668Z" style="fill:rgb(51,51,51);fill-rule:nonzero;"/>
            <path d="M480.694,209.607c-0,-0.686 0.24,-1.279 0.72,-1.778c0.481,-0.499 1.058,-0.748 1.732,-0.748c0.698,-0 1.297,0.249 1.796,0.748c0.499,0.499 0.749,1.092 0.749,1.778c-0,0.699 -0.247,1.292 -0.739,1.778c-0.493,0.487 -1.095,0.73 -1.806,0.73c-0.699,0 -1.282,-0.237 -1.75,-0.711c-0.468,-0.474 -0.702,-1.073 -0.702,-1.797Zm2.489,-11.416c-1.759,0 -3.072,0.948 -3.939,2.845c-0.868,1.896 -1.301,4.785 -1.301,8.665c-0,3.868 0.433,6.75 1.301,8.646c0.867,1.897 2.18,2.845 3.939,2.845c1.772,-0 3.091,-0.948 3.958,-2.845c0.867,-1.896 1.301,-4.778 1.301,-8.646c-0,-3.88 -0.434,-6.769 -1.301,-8.665c-0.867,-1.897 -2.186,-2.845 -3.958,-2.845Zm-0,-2.994c2.982,-0 5.237,1.223 6.765,3.668c1.529,2.445 2.293,6.057 2.293,10.836c-0,4.766 -0.764,8.372 -2.293,10.817c-1.528,2.445 -3.783,3.668 -6.765,3.668c-2.982,0 -5.234,-1.223 -6.756,-3.668c-1.522,-2.445 -2.283,-6.051 -2.283,-10.817c-0,-4.779 0.761,-8.391 2.283,-10.836c1.522,-2.445 3.774,-3.668 6.756,-3.668Z" style="fill:rgb(51,51,51);fill-rule:nonzero;"/>
            <path d="M503.769,209.607c0,-0.686 0.241,-1.279 0.721,-1.778c0.48,-0.499 1.057,-0.748 1.731,-0.748c0.699,-0 1.298,0.249 1.797,0.748c0.499,0.499 0.748,1.092 0.748,1.778c0,0.699 -0.246,1.292 -0.739,1.778c-0.493,0.487 -1.095,0.73 -1.806,0.73c-0.699,0 -1.282,-0.237 -1.75,-0.711c-0.468,-0.474 -0.702,-1.073 -0.702,-1.797Zm2.489,-11.416c-1.759,0 -3.072,0.948 -3.939,2.845c-0.867,1.896 -1.301,4.785 -1.301,8.665c0,3.868 0.434,6.75 1.301,8.646c0.867,1.897 2.18,2.845 3.939,2.845c1.772,-0 3.092,-0.948 3.959,-2.845c0.867,-1.896 1.3,-4.778 1.3,-8.646c0,-3.88 -0.433,-6.769 -1.3,-8.665c-0.867,-1.897 -2.187,-2.845 -3.959,-2.845Zm0,-2.994c2.982,-0 5.237,1.223 6.766,3.668c1.528,2.445 2.292,6.057 2.292,10.836c0,4.766 -0.764,8.372 -2.292,10.817c-1.529,2.445 -3.784,3.668 -6.766,3.668c-2.981,0 -5.233,-1.223 -6.756,-3.668c-1.522,-2.445 -2.283,-6.051 -2.283,-10.817c0,-4.779 0.761,-8.391 2.283,-10.836c1.523,-2.445 3.775,-3.668 6.756,-3.668Z" style="fill:rgb(51,51,51);fill-rule:nonzero;"/>
            <path d="M526.845,209.607c-0,-0.686 0.24,-1.279 0.72,-1.778c0.481,-0.499 1.058,-0.748 1.731,-0.748c0.699,-0 1.298,0.249 1.797,0.748c0.499,0.499 0.749,1.092 0.749,1.778c-0,0.699 -0.247,1.292 -0.74,1.778c-0.492,0.487 -1.094,0.73 -1.806,0.73c-0.698,0 -1.282,-0.237 -1.749,-0.711c-0.468,-0.474 -0.702,-1.073 -0.702,-1.797Zm2.489,-11.416c-1.759,0 -3.072,0.948 -3.94,2.845c-0.867,1.896 -1.3,4.785 -1.3,8.665c-0,3.868 0.433,6.75 1.3,8.646c0.868,1.897 2.181,2.845 3.94,2.845c1.772,-0 3.091,-0.948 3.958,-2.845c0.867,-1.896 1.301,-4.778 1.301,-8.646c-0,-3.88 -0.434,-6.769 -1.301,-8.665c-0.867,-1.897 -2.186,-2.845 -3.958,-2.845Zm-0,-2.994c2.982,-0 5.237,1.223 6.765,3.668c1.529,2.445 2.293,6.057 2.293,10.836c-0,4.766 -0.764,8.372 -2.293,10.817c-1.528,2.445 -3.783,3.668 -6.765,3.668c-2.982,0 -5.234,-1.223 -6.756,-3.668c-1.522,-2.445 -2.283,-6.051 -2.283,-10.817c-0,-4.779 0.761,-8.391 2.283,-10.836c1.522,-2.445 3.774,-3.668 6.756,-3.668Z" style="fill:rgb(51,51,51);fill-rule:nonzero;"/>
            <path d="M545.934,220.462l5.876,-0l0,-21.354l-6.325,1.423l-0,-3.444l6.288,-1.385l3.78,0l0,24.76l5.802,-0l0,3.181l-15.421,0l-0,-3.181Z" style="fill:rgb(51,51,51);fill-rule:nonzero;"/>
        </g>
        <g id="Wide">
            <g>
                <g>
                    <path d="M375.357,278.364l0,88.903l192.745,0l-0,-88.903l-7.669,0l-0.169,81.066l-177.069,0l-0,-73.229l150.658,0l-0,-7.837l-158.496,0Z" style="fill:rgb(51,51,51);fill-rule:nonzero;"/>
                    <path d="M420.578,323.768c0,-6.715 -0.694,-11.511 -2.081,-14.389c-1.368,-2.878 -3.623,-4.317 -6.766,-4.317c-3.123,0 -5.378,1.439 -6.766,4.317c-1.367,2.878 -2.051,7.674 -2.051,14.389c-0,6.694 0.684,11.48 2.051,14.358c1.388,2.878 3.643,4.316 6.766,4.316c3.143,0 5.398,-1.428 6.766,-4.285c1.387,-2.878 2.081,-7.674 2.081,-14.39m6.46,0c-0,7.96 -1.265,13.9 -3.796,17.818c-2.511,3.919 -6.348,5.878 -11.511,5.878c-5.164,0 -9.001,-1.949 -11.511,-5.847c-2.51,-3.898 -3.766,-9.848 -3.766,-17.848c0,-7.98 1.256,-13.93 3.766,-17.848c2.531,-3.919 6.368,-5.878 11.511,-5.878c5.163,-0 9,1.959 11.511,5.878c2.531,3.918 3.796,9.868 3.796,17.848" style="fill:rgb(51,51,51);fill-rule:nonzero;"/>
                    <path d="M461.58,302.438l0,6.276c-1.877,-1.205 -3.765,-2.113 -5.663,-2.725c-1.878,-0.612 -3.776,-0.918 -5.695,-0.918c-2.918,-0 -5.224,0.683 -6.918,2.051c-1.695,1.347 -2.541,3.173 -2.541,5.48c-0,2.02 0.551,3.561 1.653,4.622c1.122,1.062 3.204,1.95 6.245,2.664l3.245,0.735c4.286,1 7.409,2.571 9.368,4.714c1.959,2.143 2.939,5.062 2.939,8.756c0,4.347 -1.347,7.664 -4.041,9.95c-2.694,2.285 -6.613,3.428 -11.756,3.428c-2.143,0 -4.296,-0.234 -6.46,-0.704c-2.163,-0.449 -4.337,-1.132 -6.52,-2.051l-0,-6.582c2.347,1.49 4.561,2.582 6.643,3.276c2.102,0.694 4.214,1.041 6.337,1.041c3.123,-0 5.551,-0.694 7.286,-2.082c1.735,-1.408 2.602,-3.368 2.602,-5.878c0,-2.286 -0.602,-4.031 -1.806,-5.235c-1.184,-1.204 -3.255,-2.133 -6.214,-2.786l-3.307,-0.765c-4.245,-0.96 -7.327,-2.409 -9.245,-4.348c-1.919,-1.939 -2.878,-4.541 -2.878,-7.806c0,-4.082 1.368,-7.348 4.102,-9.797c2.756,-2.469 6.409,-3.704 10.96,-3.704c1.755,-0 3.602,0.204 5.541,0.612c1.939,0.388 3.98,0.98 6.123,1.776" style="fill:rgb(51,51,51);fill-rule:nonzero;"/>
                    <path d="M472.5,300.87l6.215,0l-0,18.736l16.93,0l-0,-18.736l6.214,0l0,45.707l-6.214,0l-0,-21.767l-16.93,0l-0,21.767l-6.215,0l0,-45.707" style="fill:rgb(51,51,51);fill-rule:nonzero;"/>
                </g>
                <path d="M506.031,300.87l6.031,0l4.377,37.104l5.205,-24.552l6.459,-0l5.266,24.614l14.828,-71.127l6.031,-0l-17.277,79.668l-5.847,0l-6.215,-27.155l-6.184,27.155l-5.848,0l-6.827,-45.707" style="fill:rgb(255,68,68);fill-rule:nonzero;"/>
            </g>
            <path d="M581.431,329.557l0,-30.958l6.831,0l0,34.054c0,2.445 0.068,4.189 0.202,5.233c0.135,1.043 0.37,1.845 0.707,2.406c0.718,1.323 1.755,2.321 3.112,2.994c1.358,0.673 3.001,1.01 4.93,1.01c1.952,-0 3.601,-0.337 4.947,-1.01c1.346,-0.673 2.389,-1.671 3.129,-2.994c0.337,-0.561 0.572,-1.358 0.707,-2.39c0.134,-1.032 0.202,-2.759 0.202,-5.182l-0,-34.121l6.797,0l-0,30.958c-0,5.137 -0.32,8.788 -0.959,10.953c-0.639,2.165 -1.744,3.954 -3.315,5.367c-1.48,1.324 -3.174,2.311 -5.081,2.962c-1.907,0.65 -4.049,0.975 -6.427,0.975c-2.355,0 -4.486,-0.325 -6.393,-0.975c-1.907,-0.651 -3.612,-1.638 -5.115,-2.962c-1.548,-1.39 -2.647,-3.191 -3.298,-5.4c-0.65,-2.21 -0.976,-5.85 -0.976,-10.92Z" style="fill:rgb(51,51,51);fill-rule:nonzero;"/>
            <path d="M652.029,300.315l-0,6.899c-2.064,-1.324 -4.133,-2.322 -6.209,-2.995c-2.075,-0.673 -4.167,-1.01 -6.275,-1.01c-3.208,0 -5.743,0.746 -7.605,2.238c-1.862,1.492 -2.793,3.505 -2.793,6.04c-0,2.221 0.611,3.915 1.834,5.081c1.222,1.167 3.505,2.143 6.848,2.928l3.566,0.807c4.711,1.1 8.144,2.827 10.297,5.183c2.154,2.355 3.231,5.563 3.231,9.623c-0,4.779 -1.481,8.424 -4.442,10.937c-2.961,2.512 -7.268,3.768 -12.922,3.768c-2.355,0 -4.722,-0.252 -7.1,-0.757c-2.378,-0.504 -4.767,-1.262 -7.167,-2.271l-0,-7.235c2.58,1.638 5.019,2.838 7.319,3.601c2.299,0.763 4.615,1.144 6.948,1.144c3.433,-0 6.102,-0.768 8.009,-2.305c1.907,-1.537 2.86,-3.685 2.86,-6.444c0,-2.513 -0.656,-4.431 -1.968,-5.754c-1.313,-1.324 -3.595,-2.345 -6.848,-3.062l-3.634,-0.842c-4.666,-1.054 -8.054,-2.647 -10.162,-4.778c-2.109,-2.131 -3.164,-4.991 -3.164,-8.581c0,-4.486 1.509,-8.081 4.526,-10.784c3.018,-2.704 7.028,-4.055 12.03,-4.055c1.93,-0 3.96,0.218 6.091,0.656c2.131,0.437 4.374,1.094 6.73,1.968Z" style="fill:rgb(51,51,51);fill-rule:nonzero;"/>
            <path d="M675.718,323.601c0,-1.234 0.432,-2.299 1.296,-3.197c0.864,-0.897 1.901,-1.346 3.113,-1.346c1.256,0 2.333,0.449 3.23,1.346c0.897,0.898 1.346,1.963 1.346,3.197c-0,1.256 -0.443,2.322 -1.329,3.197c-0.886,0.875 -1.969,1.312 -3.247,1.312c-1.257,0 -2.305,-0.426 -3.147,-1.278c-0.841,-0.853 -1.262,-1.93 -1.262,-3.231Zm4.476,-20.526c-3.163,-0 -5.524,1.705 -7.083,5.115c-1.56,3.409 -2.339,8.603 -2.339,15.579c-0,6.955 0.779,12.137 2.339,15.547c1.559,3.41 3.92,5.114 7.083,5.114c3.185,0 5.558,-1.704 7.117,-5.114c1.559,-3.41 2.338,-8.592 2.338,-15.547c0,-6.976 -0.779,-12.17 -2.338,-15.579c-1.559,-3.41 -3.932,-5.115 -7.117,-5.115Zm-0,-5.384c5.361,-0 9.416,2.198 12.164,6.595c2.748,4.397 4.122,10.891 4.122,19.483c0,8.57 -1.374,15.053 -4.122,19.45c-2.748,4.397 -6.803,6.595 -12.164,6.595c-5.362,0 -9.411,-2.198 -12.148,-6.595c-2.737,-4.397 -4.105,-10.88 -4.105,-19.45c-0,-8.592 1.368,-15.086 4.105,-19.483c2.737,-4.397 6.786,-6.595 12.148,-6.595Z" style="fill:rgb(51,51,51);fill-rule:nonzero;"/>
            <path d="M717.209,323.601c-0,-1.234 0.432,-2.299 1.295,-3.197c0.864,-0.897 1.901,-1.346 3.113,-1.346c1.256,0 2.333,0.449 3.23,1.346c0.898,0.898 1.346,1.963 1.346,3.197c0,1.256 -0.443,2.322 -1.329,3.197c-0.886,0.875 -1.968,1.312 -3.247,1.312c-1.256,0 -2.305,-0.426 -3.146,-1.278c-0.842,-0.853 -1.262,-1.93 -1.262,-3.231Zm4.475,-20.526c-3.163,-0 -5.524,1.705 -7.083,5.115c-1.559,3.409 -2.339,8.603 -2.339,15.579c0,6.955 0.78,12.137 2.339,15.547c1.559,3.41 3.92,5.114 7.083,5.114c3.186,0 5.558,-1.704 7.117,-5.114c1.559,-3.41 2.339,-8.592 2.339,-15.547c-0,-6.976 -0.78,-12.17 -2.339,-15.579c-1.559,-3.41 -3.931,-5.115 -7.117,-5.115Zm0,-5.384c5.362,-0 9.417,2.198 12.165,6.595c2.748,4.397 4.122,10.891 4.122,19.483c-0,8.57 -1.374,15.053 -4.122,19.45c-2.748,4.397 -6.803,6.595 -12.165,6.595c-5.361,0 -9.411,-2.198 -12.147,-6.595c-2.737,-4.397 -4.106,-10.88 -4.106,-19.45c0,-8.592 1.369,-15.086 4.106,-19.483c2.736,-4.397 6.786,-6.595 12.147,-6.595Z" style="fill:rgb(51,51,51);fill-rule:nonzero;"/>
            <path d="M758.699,323.601c0,-1.234 0.432,-2.299 1.296,-3.197c0.863,-0.897 1.901,-1.346 3.112,-1.346c1.256,0 2.333,0.449 3.231,1.346c0.897,0.898 1.346,1.963 1.346,3.197c-0,1.256 -0.443,2.322 -1.33,3.197c-0.886,0.875 -1.968,1.312 -3.247,1.312c-1.256,0 -2.305,-0.426 -3.146,-1.278c-0.841,-0.853 -1.262,-1.93 -1.262,-3.231Zm4.475,-20.526c-3.163,-0 -5.524,1.705 -7.083,5.115c-1.559,3.409 -2.338,8.603 -2.338,15.579c-0,6.955 0.779,12.137 2.338,15.547c1.559,3.41 3.92,5.114 7.083,5.114c3.186,0 5.558,-1.704 7.117,-5.114c1.56,-3.41 2.339,-8.592 2.339,-15.547c0,-6.976 -0.779,-12.17 -2.339,-15.579c-1.559,-3.41 -3.931,-5.115 -7.117,-5.115Zm0,-5.384c5.362,-0 9.417,2.198 12.165,6.595c2.748,4.397 4.122,10.891 4.122,19.483c0,8.57 -1.374,15.053 -4.122,19.45c-2.748,4.397 -6.803,6.595 -12.165,6.595c-5.361,0 -9.41,-2.198 -12.147,-6.595c-2.737,-4.397 -4.105,-10.88 -4.105,-19.45c-0,-8.592 1.368,-15.086 4.105,-19.483c2.737,-4.397 6.786,-6.595 12.147,-6.595Z" style="fill:rgb(51,51,51);fill-rule:nonzero;"/>
            <path d="M800.189,323.601c0,-1.234 0.432,-2.299 1.296,-3.197c0.864,-0.897 1.901,-1.346 3.113,-1.346c1.256,0 2.333,0.449 3.23,1.346c0.897,0.898 1.346,1.963 1.346,3.197c-0,1.256 -0.443,2.322 -1.329,3.197c-0.886,0.875 -1.969,1.312 -3.247,1.312c-1.257,0 -2.306,-0.426 -3.147,-1.278c-0.841,-0.853 -1.262,-1.93 -1.262,-3.231Zm4.476,-20.526c-3.163,-0 -5.524,1.705 -7.083,5.115c-1.56,3.409 -2.339,8.603 -2.339,15.579c-0,6.955 0.779,12.137 2.339,15.547c1.559,3.41 3.92,5.114 7.083,5.114c3.185,0 5.558,-1.704 7.117,-5.114c1.559,-3.41 2.338,-8.592 2.338,-15.547c0,-6.976 -0.779,-12.17 -2.338,-15.579c-1.559,-3.41 -3.932,-5.115 -7.117,-5.115Zm-0,-5.384c5.361,-0 9.416,2.198 12.164,6.595c2.748,4.397 4.122,10.891 4.122,19.483c0,8.57 -1.374,15.053 -4.122,19.45c-2.748,4.397 -6.803,6.595 -12.164,6.595c-5.362,0 -9.411,-2.198 -12.148,-6.595c-2.737,-4.397 -4.105,-10.88 -4.105,-19.45c-0,-8.592 1.368,-15.086 4.105,-19.483c2.737,-4.397 6.786,-6.595 12.148,-6.595Z" style="fill:rgb(51,51,51);fill-rule:nonzero;"/>
            <path d="M841.68,323.601c-0,-1.234 0.432,-2.299 1.295,-3.197c0.864,-0.897 1.901,-1.346 3.113,-1.346c1.256,0 2.333,0.449 3.23,1.346c0.898,0.898 1.346,1.963 1.346,3.197c0,1.256 -0.443,2.322 -1.329,3.197c-0.886,0.875 -1.968,1.312 -3.247,1.312c-1.256,0 -2.305,-0.426 -3.146,-1.278c-0.842,-0.853 -1.262,-1.93 -1.262,-3.231Zm4.475,-20.526c-3.163,-0 -5.524,1.705 -7.083,5.115c-1.559,3.409 -2.339,8.603 -2.339,15.579c0,6.955 0.78,12.137 2.339,15.547c1.559,3.41 3.92,5.114 7.083,5.114c3.186,0 5.558,-1.704 7.117,-5.114c1.559,-3.41 2.339,-8.592 2.339,-15.547c-0,-6.976 -0.78,-12.17 -2.339,-15.579c-1.559,-3.41 -3.931,-5.115 -7.117,-5.115Zm0,-5.384c5.362,-0 9.417,2.198 12.165,6.595c2.748,4.397 4.122,10.891 4.122,19.483c-0,8.57 -1.374,15.053 -4.122,19.45c-2.748,4.397 -6.803,6.595 -12.165,6.595c-5.361,0 -9.411,-2.198 -12.147,-6.595c-2.737,-4.397 -4.106,-10.88 -4.106,-19.45c0,-8.592 1.369,-15.086 4.106,-19.483c2.736,-4.397 6.786,-6.595 12.147,-6.595Z" style="fill:rgb(51,51,51);fill-rule:nonzero;"/>
            <path d="M876.003,343.118l10.566,0l-0,-38.394l-11.374,2.557l0,-6.192l11.306,-2.49l6.798,0l-0,44.519l10.431,0l0,5.721l-27.727,-0l-0,-5.721Z" style="fill:rgb(51,51,51);fill-rule:nonzero;"/>
        </g>
        <g id="Wide1" serif:id="Wide">
            <g>
                <g>
                    <path d="M375.357,421.483l0,88.903l192.745,-0l-0,-88.903l-7.669,-0l-0.169,81.066l-177.069,-0l-0,-73.229l150.658,0l-0,-7.837l-158.496,-0Z" style="fill:rgb(51,51,51);fill-rule:nonzero;"/>
                    <path d="M420.578,466.887c0,-6.715 -0.694,-11.511 -2.081,-14.39c-1.368,-2.877 -3.623,-4.316 -6.766,-4.316c-3.123,-0 -5.378,1.439 -6.766,4.316c-1.367,2.878 -2.051,7.674 -2.051,14.39c-0,6.694 0.684,11.48 2.051,14.357c1.388,2.878 3.643,4.317 6.766,4.317c3.143,0 5.398,-1.429 6.766,-4.286c1.387,-2.878 2.081,-7.674 2.081,-14.389m6.46,-0c-0,7.96 -1.265,13.899 -3.796,17.818c-2.511,3.919 -6.348,5.878 -11.511,5.878c-5.164,-0 -9.001,-1.949 -11.511,-5.847c-2.51,-3.899 -3.766,-9.848 -3.766,-17.849c0,-7.98 1.256,-13.929 3.766,-17.848c2.531,-3.918 6.368,-5.877 11.511,-5.877c5.163,-0 9,1.959 11.511,5.877c2.531,3.919 3.796,9.868 3.796,17.848" style="fill:rgb(51,51,51);fill-rule:nonzero;"/>
                    <path d="M461.58,445.556l0,6.276c-1.877,-1.204 -3.765,-2.112 -5.663,-2.724c-1.878,-0.613 -3.776,-0.919 -5.695,-0.919c-2.918,0 -5.224,0.684 -6.918,2.051c-1.695,1.347 -2.541,3.174 -2.541,5.48c-0,2.021 0.551,3.562 1.653,4.623c1.122,1.061 3.204,1.949 6.245,2.664l3.245,0.734c4.286,1 7.409,2.572 9.368,4.715c1.959,2.143 2.939,5.061 2.939,8.756c0,4.347 -1.347,7.663 -4.041,9.949c-2.694,2.286 -6.613,3.429 -11.756,3.429c-2.143,-0 -4.296,-0.235 -6.46,-0.704c-2.163,-0.449 -4.337,-1.133 -6.52,-2.051l-0,-6.582c2.347,1.489 4.561,2.581 6.643,3.275c2.102,0.694 4.214,1.041 6.337,1.041c3.123,0 5.551,-0.694 7.286,-2.082c1.735,-1.408 2.602,-3.367 2.602,-5.878c0,-2.285 -0.602,-4.03 -1.806,-5.235c-1.184,-1.204 -3.255,-2.132 -6.214,-2.785l-3.307,-0.766c-4.245,-0.959 -7.327,-2.408 -9.245,-4.347c-1.919,-1.939 -2.878,-4.541 -2.878,-7.807c0,-4.082 1.368,-7.347 4.102,-9.796c2.756,-2.47 6.409,-3.705 10.96,-3.705c1.755,0 3.602,0.205 5.541,0.613c1.939,0.388 3.98,0.979 6.123,1.775" style="fill:rgb(51,51,51);fill-rule:nonzero;"/>
                    <path d="M472.5,443.989l6.215,-0l-0,18.736l16.93,0l-0,-18.736l6.214,-0l0,45.707l-6.214,-0l-0,-21.767l-16.93,-0l-0,21.767l-6.215,-0l0,-45.707" style="fill:rgb(51,51,51);fill-rule:nonzero;"/>
                </g>
                <path d="M506.031,443.989l6.031,-0l4.377,37.104l5.205,-24.553l6.459,0l5.266,24.614l14.828,-71.127l6.031,0l-17.277,79.669l-5.847,-0l-6.215,-27.155l-6.184,27.155l-5.848,-0l-6.827,-45.707" style="fill:rgb(255,68,68);fill-rule:nonzero;"/>
            </g>
        </g>
        <g id="Labels">
            <path d="M156.234,176.274c-2.567,0 -5.018,-0.394 -7.354,-1.181c-2.336,-0.788 -4.172,-1.803 -5.508,-3.044l1.767,-3.745c1.272,1.113 2.902,2.041 4.888,2.783c1.987,0.742 4.053,1.113 6.2,1.113c1.945,0 3.525,-0.228 4.739,-0.683c1.215,-0.456 2.11,-1.076 2.686,-1.861c0.577,-0.784 0.865,-1.662 0.865,-2.633c0,-1.168 -0.37,-2.104 -1.111,-2.81c-0.741,-0.706 -1.711,-1.271 -2.91,-1.696c-1.199,-0.424 -2.524,-0.801 -3.974,-1.128c-1.45,-0.328 -2.901,-0.704 -4.354,-1.128c-1.452,-0.425 -2.778,-0.976 -3.976,-1.654c-1.199,-0.678 -2.169,-1.582 -2.91,-2.71c-0.741,-1.129 -1.112,-2.587 -1.112,-4.374c0,-1.742 0.46,-3.34 1.379,-4.796c0.919,-1.456 2.331,-2.624 4.236,-3.505c1.904,-0.881 4.331,-1.322 7.279,-1.322c1.954,0 3.891,0.26 5.811,0.779c1.92,0.52 3.582,1.257 4.987,2.212l-1.582,3.808c-1.452,-0.938 -2.98,-1.627 -4.585,-2.066c-1.605,-0.44 -3.16,-0.66 -4.664,-0.66c-1.876,0 -3.42,0.243 -4.632,0.729c-1.212,0.485 -2.098,1.127 -2.658,1.925c-0.561,0.799 -0.841,1.699 -0.841,2.701c-0,1.173 0.37,2.112 1.111,2.818c0.741,0.706 1.711,1.264 2.91,1.675c1.199,0.412 2.525,0.788 3.978,1.129c1.452,0.341 2.903,0.718 4.353,1.131c1.45,0.414 2.775,0.953 3.974,1.618c1.198,0.665 2.168,1.559 2.909,2.682c0.741,1.124 1.112,2.563 1.112,4.318c-0,1.715 -0.468,3.3 -1.403,4.756c-0.935,1.456 -2.365,2.623 -4.291,3.501c-1.926,0.879 -4.365,1.318 -7.319,1.318Z" style="fill:rgb(0,138,179);fill-rule:nonzero;"/>
            <path d="M183.367,176.153c-2.574,-0 -4.561,-0.682 -5.964,-2.045c-1.402,-1.363 -2.103,-3.335 -2.103,-5.916l-0,-23.315l4.608,-0l-0,23.156c-0,1.355 0.344,2.401 1.033,3.14c0.688,0.739 1.675,1.109 2.961,1.109c1.421,-0 2.607,-0.391 3.56,-1.172l1.442,3.307c-0.684,0.581 -1.52,1.016 -2.508,1.304c-0.988,0.288 -1.998,0.432 -3.029,0.432Zm-12.421,-21.9l0,-3.79l16.268,-0l-0,3.79l-16.268,0Z" style="fill:rgb(0,138,179);fill-rule:nonzero;"/>
            <path d="M209.015,175.887l0,-5.377l-0.203,-1.019l0,-9.179c0,-1.944 -0.57,-3.45 -1.712,-4.518c-1.141,-1.069 -2.843,-1.604 -5.105,-1.604c-1.532,0 -3.012,0.246 -4.44,0.737c-1.428,0.492 -2.645,1.155 -3.652,1.99l-1.929,-3.429c1.319,-1.066 2.901,-1.881 4.746,-2.445c1.844,-0.564 3.776,-0.846 5.794,-0.846c3.474,0 6.161,0.851 8.059,2.553c1.899,1.702 2.848,4.301 2.848,7.797l-0,15.34l-4.406,0Zm-8.321,0.266c-1.91,-0 -3.575,-0.315 -4.995,-0.945c-1.42,-0.63 -2.515,-1.514 -3.284,-2.651c-0.769,-1.137 -1.154,-2.434 -1.154,-3.891c0,-1.373 0.328,-2.618 0.982,-3.734c0.655,-1.116 1.73,-2.013 3.226,-2.691c1.497,-0.678 3.497,-1.017 6.003,-1.017l8.071,-0l0,3.344l-7.876,0c-2.276,0 -3.817,0.381 -4.626,1.142c-0.808,0.761 -1.212,1.689 -1.212,2.786c-0,1.261 0.499,2.262 1.497,3.001c0.997,0.739 2.377,1.109 4.138,1.109c1.725,-0 3.235,-0.383 4.53,-1.149c1.295,-0.767 2.235,-1.888 2.818,-3.363l0.886,3.178c-0.618,1.524 -1.693,2.719 -3.224,3.584c-1.532,0.864 -3.458,1.297 -5.78,1.297Z" style="fill:rgb(0,138,179);fill-rule:nonzero;"/>
            <path d="M231.856,176.153c-2.58,-0 -4.884,-0.557 -6.913,-1.669c-2.029,-1.113 -3.619,-2.647 -4.769,-4.602c-1.151,-1.956 -1.727,-4.192 -1.727,-6.71c0,-2.545 0.576,-4.789 1.727,-6.731c1.15,-1.942 2.74,-3.469 4.769,-4.579c2.029,-1.11 4.333,-1.665 6.913,-1.665c2.305,0 4.363,0.458 6.171,1.373c1.809,0.916 3.214,2.275 4.216,4.078l-3.51,2.22c-0.825,-1.231 -1.835,-2.145 -3.032,-2.742c-1.197,-0.597 -2.492,-0.895 -3.886,-0.895c-1.657,-0 -3.145,0.366 -4.462,1.099c-1.318,0.733 -2.357,1.769 -3.117,3.107c-0.759,1.339 -1.139,2.917 -1.139,4.735c-0,1.817 0.38,3.395 1.139,4.734c0.76,1.338 1.799,2.375 3.117,3.11c1.317,0.736 2.805,1.103 4.462,1.103c1.394,0 2.689,-0.293 3.886,-0.878c1.197,-0.586 2.207,-1.506 3.032,-2.759l3.51,2.22c-1.002,1.776 -2.407,3.129 -4.216,4.058c-1.808,0.928 -3.866,1.393 -6.171,1.393Z" style="fill:rgb(0,138,179);fill-rule:nonzero;"/>
            <path d="M250.193,169.752l0.121,-5.895l14.614,-13.394l5.608,-0l-11.247,11.023l-2.511,2.116l-6.585,6.15Zm-3.705,6.135l0,-35.616l4.608,0l0,35.616l-4.608,0Zm19.444,0l-9.994,-12.362l2.957,-3.698l12.664,16.06l-5.627,0Z" style="fill:rgb(0,138,179);fill-rule:nonzero;"/>
            <path d="M284.209,176.153c-2.725,-0 -5.116,-0.557 -7.175,-1.669c-2.058,-1.113 -3.657,-2.648 -4.797,-4.606c-1.14,-1.958 -1.71,-4.193 -1.71,-6.706c0,-2.518 0.551,-4.754 1.651,-6.707c1.1,-1.953 2.617,-3.486 4.55,-4.599c1.933,-1.112 4.122,-1.669 6.569,-1.669c2.446,0 4.615,0.547 6.508,1.641c1.893,1.094 3.377,2.624 4.452,4.588c1.076,1.964 1.614,4.254 1.614,6.87c-0,0.194 -0.007,0.422 -0.021,0.684c-0.013,0.262 -0.033,0.506 -0.06,0.732l-21.654,0l0,-3.344l19.221,-0l-1.844,1.165c0.027,-1.635 -0.315,-3.087 -1.027,-4.356c-0.712,-1.268 -1.684,-2.263 -2.917,-2.985c-1.232,-0.722 -2.657,-1.083 -4.272,-1.083c-1.611,0 -3.04,0.361 -4.289,1.083c-1.249,0.722 -2.221,1.724 -2.917,3.006c-0.695,1.282 -1.043,2.767 -1.043,4.457l-0,0.76c-0,1.704 0.388,3.213 1.163,4.527c0.776,1.314 1.866,2.339 3.27,3.074c1.403,0.736 3.02,1.103 4.849,1.103c1.502,0 2.876,-0.252 4.121,-0.757c1.244,-0.505 2.322,-1.276 3.233,-2.313l2.537,2.983c-1.142,1.344 -2.567,2.367 -4.276,3.068c-1.708,0.702 -3.62,1.053 -5.736,1.053Z" style="fill:rgb(0,138,179);fill-rule:nonzero;"/>
            <path d="M311.562,176.153c-2.461,-0 -4.664,-0.543 -6.61,-1.629c-1.945,-1.085 -3.473,-2.6 -4.583,-4.545c-1.11,-1.944 -1.666,-4.213 -1.666,-6.807c0,-2.6 0.556,-4.869 1.666,-6.809c1.11,-1.939 2.638,-3.452 4.583,-4.537c1.946,-1.086 4.149,-1.629 6.61,-1.629c2.137,0 4.075,0.482 5.813,1.446c1.738,0.964 3.127,2.403 4.167,4.315c1.04,1.913 1.56,4.317 1.56,7.214c-0,2.864 -0.507,5.261 -1.52,7.193c-1.013,1.931 -2.388,3.378 -4.126,4.342c-1.738,0.964 -3.703,1.446 -5.894,1.446Zm0.365,-4.034c1.626,0 3.083,-0.367 4.371,-1.103c1.288,-0.735 2.31,-1.78 3.068,-3.134c0.757,-1.355 1.136,-2.925 1.136,-4.71c0,-1.818 -0.379,-3.396 -1.136,-4.735c-0.758,-1.338 -1.78,-2.374 -3.068,-3.107c-1.288,-0.733 -2.745,-1.099 -4.371,-1.099c-1.625,-0 -3.081,0.366 -4.366,1.099c-1.286,0.733 -2.309,1.769 -3.069,3.107c-0.759,1.339 -1.139,2.917 -1.139,4.735c-0,1.785 0.38,3.355 1.139,4.71c0.76,1.354 1.783,2.399 3.069,3.134c1.285,0.736 2.741,1.103 4.366,1.103Zm8.697,3.768l-0,-6.85l0.277,-5.913l-0.48,-5.914l0,-16.939l4.608,0l0,35.616l-4.405,0Z" style="fill:rgb(0,138,179);fill-rule:nonzero;"/>
            <path d="M214.364,342.286l-11.236,-33.6l4.948,0l10.299,31.008l-2.474,0l10.669,-31.008l4.447,0l10.425,31.008l-2.385,0l10.461,-31.008l4.575,0l-11.235,33.6l-5.055,0l-9.795,-28.733l1.327,0l-9.876,28.733l-5.095,0Z" style="fill:rgb(0,136,149);fill-rule:nonzero;"/>
            <path d="M256.584,342.286l0,-25.44l4.608,0l0,25.44l-4.608,0Zm2.304,-30.336c-0.896,0 -1.64,-0.288 -2.232,-0.864c-0.592,-0.576 -0.888,-1.28 -0.888,-2.112c0,-0.864 0.296,-1.584 0.888,-2.16c0.592,-0.576 1.336,-0.864 2.232,-0.864c0.896,0 1.64,0.28 2.232,0.84c0.592,0.56 0.888,1.256 0.888,2.088c0,0.864 -0.288,1.592 -0.864,2.184c-0.576,0.592 -1.328,0.888 -2.256,0.888Z" style="fill:rgb(0,136,149);fill-rule:nonzero;"/>
            <path d="M279.099,342.552c-2.461,-0 -4.664,-0.543 -6.61,-1.628c-1.945,-1.086 -3.473,-2.601 -4.583,-4.545c-1.111,-1.945 -1.666,-4.214 -1.666,-6.808c0,-2.6 0.555,-4.869 1.666,-6.809c1.11,-1.939 2.638,-3.452 4.583,-4.537c1.946,-1.086 4.149,-1.628 6.61,-1.628c2.137,-0 4.075,0.482 5.813,1.446c1.738,0.964 3.127,2.402 4.167,4.314c1.04,1.913 1.56,4.317 1.56,7.214c-0,2.864 -0.507,5.261 -1.52,7.193c-1.013,1.931 -2.388,3.378 -4.126,4.342c-1.738,0.964 -3.703,1.446 -5.894,1.446Zm0.365,-4.034c1.626,0 3.083,-0.367 4.371,-1.103c1.288,-0.735 2.31,-1.78 3.068,-3.134c0.757,-1.355 1.136,-2.925 1.136,-4.71c0,-1.818 -0.379,-3.396 -1.136,-4.735c-0.758,-1.338 -1.78,-2.374 -3.068,-3.107c-1.288,-0.733 -2.745,-1.099 -4.371,-1.099c-1.625,0 -3.081,0.366 -4.367,1.099c-1.285,0.733 -2.308,1.769 -3.068,3.107c-0.76,1.339 -1.139,2.917 -1.139,4.735c-0,1.785 0.379,3.355 1.139,4.71c0.76,1.354 1.783,2.399 3.068,3.134c1.286,0.736 2.742,1.103 4.367,1.103Zm8.697,3.768l-0,-6.849l0.277,-5.914l-0.48,-5.914l0,-16.939l4.608,0l0,35.616l-4.405,0Z" style="fill:rgb(0,136,149);fill-rule:nonzero;"/>
            <path d="M312.13,342.552c-2.725,-0 -5.116,-0.556 -7.175,-1.669c-2.058,-1.112 -3.657,-2.648 -4.797,-4.606c-1.14,-1.958 -1.71,-4.193 -1.71,-6.706c0,-2.518 0.55,-4.754 1.651,-6.707c1.1,-1.953 2.617,-3.486 4.55,-4.599c1.933,-1.112 4.122,-1.668 6.569,-1.668c2.446,-0 4.615,0.547 6.508,1.641c1.893,1.094 3.377,2.623 4.452,4.587c1.076,1.964 1.614,4.254 1.614,6.87c-0,0.194 -0.007,0.422 -0.021,0.684c-0.013,0.262 -0.033,0.506 -0.06,0.732l-21.654,0l0,-3.344l19.221,0l-1.844,1.166c0.027,-1.636 -0.315,-3.088 -1.027,-4.356c-0.712,-1.269 -1.684,-2.264 -2.917,-2.986c-1.233,-0.722 -2.657,-1.082 -4.272,-1.082c-1.611,-0 -3.04,0.36 -4.289,1.082c-1.249,0.722 -2.221,1.724 -2.917,3.006c-0.696,1.282 -1.043,2.768 -1.043,4.457l-0,0.76c-0,1.704 0.387,3.214 1.163,4.528c0.776,1.314 1.866,2.338 3.269,3.073c1.404,0.736 3.021,1.103 4.85,1.103c1.502,0 2.876,-0.252 4.12,-0.757c1.245,-0.505 2.323,-1.275 3.234,-2.312l2.537,2.982c-1.142,1.344 -2.568,2.367 -4.276,3.069c-1.708,0.701 -3.62,1.052 -5.736,1.052Z" style="fill:rgb(0,136,149);fill-rule:nonzero;"/>
            <path d="M102.078,479.3l-0,-33.6l4.77,-0l0,29.445l18.233,-0l-0,4.155l-23.003,-0Z" style="fill:rgb(82,48,128);fill-rule:nonzero;"/>
            <path d="M139.64,479.565c-2.536,0 -4.798,-0.556 -6.788,-1.668c-1.989,-1.113 -3.559,-2.651 -4.71,-4.614c-1.151,-1.963 -1.726,-4.198 -1.726,-6.705c-0,-2.541 0.578,-4.781 1.734,-6.722c1.155,-1.941 2.722,-3.467 4.701,-4.579c1.978,-1.111 4.241,-1.667 6.789,-1.667c2.547,0 4.819,0.555 6.815,1.665c1.996,1.11 3.563,2.633 4.701,4.571c1.138,1.937 1.707,4.181 1.707,6.732c0,2.517 -0.567,4.755 -1.702,6.713c-1.134,1.958 -2.704,3.493 -4.711,4.606c-2.006,1.112 -4.276,1.668 -6.81,1.668Zm-0,-4.033c1.652,-0 3.123,-0.368 4.411,-1.103c1.288,-0.735 2.304,-1.78 3.048,-3.135c0.744,-1.354 1.116,-2.926 1.116,-4.715c-0,-1.814 -0.372,-3.39 -1.116,-4.729c-0.744,-1.339 -1.76,-2.374 -3.048,-3.107c-1.288,-0.733 -2.752,-1.099 -4.391,-1.099c-1.639,-0 -3.101,0.366 -4.387,1.099c-1.286,0.733 -2.308,1.768 -3.068,3.107c-0.76,1.339 -1.14,2.915 -1.14,4.729c0,1.789 0.38,3.361 1.14,4.715c0.76,1.355 1.781,2.4 3.065,3.135c1.284,0.735 2.74,1.103 4.37,1.103Z" style="fill:rgb(82,48,128);fill-rule:nonzero;"/>
            <path d="M169.176,488.877c-2.321,0 -4.579,-0.32 -6.775,-0.962c-2.195,-0.641 -3.993,-1.575 -5.393,-2.8l2.253,-3.551c1.172,1.005 2.624,1.803 4.357,2.394c1.733,0.591 3.532,0.886 5.396,0.886c3.016,-0 5.232,-0.699 6.647,-2.098c1.414,-1.399 2.122,-3.533 2.122,-6.402l-0,-5.414l0.48,-5.029l-0.278,-5.068l0,-6.957l4.406,-0l-0,21.959c-0,4.486 -1.121,7.782 -3.363,9.886c-2.242,2.104 -5.526,3.156 -9.852,3.156Zm-0.558,-10.636c-2.466,-0 -4.673,-0.52 -6.621,-1.56c-1.948,-1.04 -3.485,-2.486 -4.612,-4.337c-1.126,-1.851 -1.689,-3.998 -1.689,-6.443c-0,-2.449 0.563,-4.598 1.689,-6.446c1.127,-1.849 2.664,-3.285 4.612,-4.309c1.948,-1.024 4.155,-1.536 6.621,-1.536c2.174,0 4.151,0.445 5.932,1.334c1.781,0.889 3.212,2.244 4.292,4.065c1.081,1.822 1.621,4.119 1.621,6.892c0,2.769 -0.54,5.065 -1.621,6.889c-1.08,1.824 -2.511,3.188 -4.292,4.093c-1.781,0.905 -3.758,1.358 -5.932,1.358Zm0.486,-4.034c1.717,0 3.233,-0.35 4.548,-1.051c1.315,-0.7 2.346,-1.676 3.092,-2.926c0.747,-1.25 1.12,-2.693 1.12,-4.329c-0,-1.64 -0.373,-3.083 -1.12,-4.328c-0.746,-1.245 -1.777,-2.211 -3.092,-2.898c-1.315,-0.688 -2.831,-1.031 -4.548,-1.031c-1.684,-0 -3.192,0.343 -4.523,1.031c-1.331,0.687 -2.37,1.653 -3.116,2.898c-0.747,1.245 -1.12,2.688 -1.12,4.328c0,1.636 0.373,3.079 1.12,4.329c0.746,1.25 1.785,2.226 3.116,2.926c1.331,0.701 2.839,1.051 4.523,1.051Z" style="fill:rgb(82,48,128);fill-rule:nonzero;"/>
            <path d="M201.416,479.565c-2.536,0 -4.798,-0.556 -6.788,-1.668c-1.989,-1.113 -3.559,-2.651 -4.71,-4.614c-1.151,-1.963 -1.726,-4.198 -1.726,-6.705c-0,-2.541 0.578,-4.781 1.734,-6.722c1.155,-1.941 2.722,-3.467 4.701,-4.579c1.978,-1.111 4.241,-1.667 6.789,-1.667c2.547,0 4.819,0.555 6.815,1.665c1.996,1.11 3.563,2.633 4.701,4.571c1.138,1.937 1.707,4.181 1.707,6.732c0,2.517 -0.567,4.755 -1.702,6.713c-1.134,1.958 -2.704,3.493 -4.711,4.606c-2.006,1.112 -4.276,1.668 -6.81,1.668Zm-0,-4.033c1.652,-0 3.123,-0.368 4.411,-1.103c1.288,-0.735 2.304,-1.78 3.048,-3.135c0.744,-1.354 1.116,-2.926 1.116,-4.715c-0,-1.814 -0.372,-3.39 -1.116,-4.729c-0.744,-1.339 -1.76,-2.374 -3.048,-3.107c-1.288,-0.733 -2.752,-1.099 -4.391,-1.099c-1.639,-0 -3.101,0.366 -4.387,1.099c-1.286,0.733 -2.308,1.768 -3.068,3.107c-0.76,1.339 -1.14,2.915 -1.14,4.729c0,1.789 0.38,3.361 1.14,4.715c0.76,1.355 1.781,2.4 3.065,3.135c1.284,0.735 2.74,1.103 4.37,1.103Z" style="fill:rgb(82,48,128);fill-rule:nonzero;"/>
            <path d="M242.696,479.565c-2.536,0 -4.798,-0.556 -6.788,-1.668c-1.989,-1.113 -3.559,-2.651 -4.71,-4.614c-1.151,-1.963 -1.726,-4.198 -1.726,-6.705c-0,-2.541 0.578,-4.781 1.734,-6.722c1.155,-1.941 2.722,-3.467 4.701,-4.579c1.978,-1.111 4.241,-1.667 6.789,-1.667c2.547,0 4.819,0.555 6.815,1.665c1.996,1.11 3.563,2.633 4.701,4.571c1.138,1.937 1.707,4.181 1.707,6.732c0,2.517 -0.567,4.755 -1.702,6.713c-1.134,1.958 -2.704,3.493 -4.711,4.606c-2.006,1.112 -4.276,1.668 -6.81,1.668Zm-0,-4.033c1.652,-0 3.123,-0.368 4.411,-1.103c1.288,-0.735 2.304,-1.78 3.048,-3.135c0.744,-1.354 1.116,-2.926 1.116,-4.715c-0,-1.814 -0.372,-3.39 -1.116,-4.729c-0.744,-1.339 -1.76,-2.374 -3.048,-3.107c-1.288,-0.733 -2.752,-1.099 -4.391,-1.099c-1.639,-0 -3.101,0.366 -4.387,1.099c-1.286,0.733 -2.308,1.768 -3.068,3.107c-0.76,1.339 -1.14,2.915 -1.14,4.729c0,1.789 0.38,3.361 1.14,4.715c0.76,1.355 1.781,2.4 3.065,3.135c1.284,0.735 2.74,1.103 4.37,1.103Z" style="fill:rgb(82,48,128);fill-rule:nonzero;"/>
            <path d="M274.677,453.61c2.075,0 3.903,0.399 5.483,1.196c1.581,0.798 2.826,2.012 3.736,3.643c0.911,1.631 1.366,3.701 1.366,6.211l0,14.64l-4.608,-0l0,-14.113c0,-2.477 -0.601,-4.34 -1.805,-5.589c-1.203,-1.249 -2.902,-1.873 -5.096,-1.873c-1.609,-0 -3.021,0.325 -4.238,0.975c-1.217,0.65 -2.153,1.599 -2.81,2.845c-0.656,1.246 -0.984,2.79 -0.984,4.631l-0,13.124l-4.608,-0l-0,-25.424l4.405,-0l0,6.853l-0.744,-1.806c0.844,-1.689 2.128,-2.997 3.852,-3.923c1.725,-0.927 3.742,-1.39 6.051,-1.39Z" style="fill:rgb(82,48,128);fill-rule:nonzero;"/>
            <rect x="293.177" y="443.684" width="4.608" height="35.616" style="fill:rgb(82,48,128);fill-rule:nonzero;"/>
            <path d="M306.261,488.877c-1.223,0 -2.412,-0.197 -3.568,-0.592c-1.155,-0.395 -2.136,-0.974 -2.943,-1.737l1.976,-3.443c0.618,0.596 1.315,1.055 2.092,1.377c0.776,0.323 1.593,0.484 2.45,0.484c1.108,0 2.034,-0.29 2.778,-0.87c0.744,-0.58 1.439,-1.595 2.087,-3.046l1.581,-3.505l0.442,-0.62l10.019,-23.049l4.509,-0l-12.348,27.989c-0.743,1.776 -1.569,3.18 -2.479,4.209c-0.909,1.03 -1.907,1.755 -2.993,2.174c-1.086,0.42 -2.287,0.629 -3.603,0.629Zm6.036,-8.766l-11.582,-26.235l4.793,-0l9.857,22.644l-3.068,3.591Z" style="fill:rgb(82,48,128);fill-rule:nonzero;"/>
            <path d="M354.851,89.639l-10.881,0l0,137.267l10.881,0" style="fill:none;stroke:rgb(0,138,179);stroke-width:7px;"/>
            <path d="M354.851,277.414l-10.881,-0l0,93.675l10.881,-0" style="fill:none;stroke:rgb(0,136,149);stroke-width:7px;"/>
            <path d="M354.851,419.443l-10.881,0l0,93.675l10.881,0" style="fill:none;stroke:rgb(82,48,128);stroke-width:7px;"/>
        </g>
    </g>
</svg>
